<?xml version="1.0" encoding="utf-8"?>
<!-- Generator: Adobe Illustrator 19.0.0, SVG Export Plug-In . SVG Version: 6.00 Build 0)  -->
<svg version="1.1" id="Layer_1" xmlns="http://www.w3.org/2000/svg" xmlns:xlink="http://www.w3.org/1999/xlink" x="0px" y="0px"
	 viewBox="0 0 136 136" enable-background="new 0 0 136 136" xml:space="preserve">
<g id="XMLID_10_">
	
		<rect id="XMLID_2_" x="47.7" y="4.2" fill="#FFAE85" stroke="#0033FF" stroke-width="5" stroke-miterlimit="10" width="56" height="128"/>
	<rect id="XMLID_14_" x="87.7" y="4.2" fill="#FF9A66" width="16" height="128"/>
	<rect id="XMLID_15_" x="47.7" y="4.2" fill="#FF9A66" width="16" height="128"/>
	
		<rect id="XMLID_13_" x="47.7" y="4.2" fill="none" stroke="#0033FF" stroke-width="5" stroke-miterlimit="10" width="56" height="128"/>
	
		<rect id="XMLID_7_" x="81.7" y="42.2" fill="#FFC2A3" stroke="#0033FF" stroke-width="5" stroke-miterlimit="10" width="44" height="90"/>
	
		<rect id="XMLID_8_" x="11.7" y="62.2" fill="#FFC2A3" stroke="#0033FF" stroke-width="5" stroke-miterlimit="10" width="36" height="70"/>
	<rect id="XMLID_19_" x="11.7" y="62.2" fill="#FFAE85" width="12" height="70"/>
	<rect id="XMLID_21_" x="39.7" y="62.2" fill="#FFAE85" width="8" height="50"/>
	
		<rect id="XMLID_20_" x="11.7" y="62.2" fill="none" stroke="#0033FF" stroke-width="5" stroke-miterlimit="10" width="36" height="70"/>
	
		<rect id="XMLID_9_" x="25.7" y="112.2" fill="#FFD7C2" stroke="#0033FF" stroke-width="5" stroke-miterlimit="10" width="44" height="20"/>
	<rect id="XMLID_6_" x="113.7" y="42.2" fill="#FFAE85" width="12" height="90"/>
	<rect id="XMLID_12_" x="81.7" y="42.2" fill="#FFAE85" width="12" height="90"/>
	<rect id="XMLID_16_" x="57.7" y="112.2" fill="#FFC2A3" width="12" height="20"/>
	<rect id="XMLID_18_" x="25.7" y="112.2" fill="#FFC2A3" width="12" height="20"/>
	
		<rect id="XMLID_11_" x="81.7" y="42.2" fill="none" stroke="#0033FF" stroke-width="5" stroke-miterlimit="10" width="44" height="90"/>
	
		<rect id="XMLID_17_" x="25.7" y="112.2" fill="none" stroke="#0033FF" stroke-width="5" stroke-miterlimit="10" width="44" height="20"/>
</g>
</svg>
