<?xml version="1.0" encoding="utf-8"?>
<!-- Generator: Adobe Illustrator 19.0.0, SVG Export Plug-In . SVG Version: 6.00 Build 0)  -->
<svg version="1.1" id="Layer_1" xmlns="http://www.w3.org/2000/svg" xmlns:xlink="http://www.w3.org/1999/xlink" x="0px" y="0px"
	 viewBox="-387 148.9 504.1 504.1" style="enable-background:new -387 148.9 504.1 504.1;" xml:space="preserve">
<style type="text/css">
	.st0{fill:#FF9A66;}
	.st1{fill:#FFC2A3;}
</style>
<path class="st0" d="M46.2,432.4h-362.3c-39,0-70.9,31.9-70.9,70.9v55.1c0,21.7,17.7,39.4,39.4,39.4H77.7
	c21.7,0,39.4-17.7,39.4-39.4v-55.1C117.1,464.3,85.2,432.4,46.2,432.4z"/>
<path class="st0" d="M-386.6,495.5h503.3c-3.9-35.4-33.9-63-70.5-63h-362.3C-352.7,432.4-382.7,460-386.6,495.5z"/>
<path class="st1" d="M69.9,337.9c0-78.4-63.4-141.8-141.8-141.8h-126c-78.4,0-141.8,63.4-141.8,141.8v279.6
	c0,19.7,15.8,35.4,35.4,35.4H34.4c19.7,0,35.4-15.8,35.4-35.4L69.9,337.9L69.9,337.9z"/>
<path class="st1" d="M-198,196.1c-78.4,0-141.8,63.4-141.8,141.8v279.6c0,19.7,15.8,35.4,35.4,35.4h169.4V196.1H-198z"/>
<path class="st0" d="M-94.4,196.1c-7.9-14.2-23.2-23.6-40.6-23.6s-32.7,9.5-40.6,23.6h-26.4c9.8-27.6,35.8-47.3,67-47.3
	s57.1,19.7,67,47.3H-94.4z M-264.9,400.9H-5c11,0,19.7,8.7,19.7,19.7v157.5c0,11-8.7,19.7-19.7,19.7h-259.9
	c-11,0-19.7-8.7-19.7-19.7V420.6C-284.6,409.6-275.9,400.9-264.9,400.9z"/>
<path class="st0" d="M-84.9,293.8l-37.4-37.4c-6.7-6.7-18.1-6.7-24.8,0l-37.4,37.4c-6.7,6.7-6.7,18.1,0,24.8l37.4,37.4
	c6.7,6.7,18.1,6.7,24.8,0l37.4-37.4C-78.2,311.9-78.2,300.9-84.9,293.8z M-142.8,318.2c0,2.4-1.6,3.9-3.9,3.9h-7.9
	c-2.4,0-3.9-1.6-3.9-3.9v-23.6c0-2.4,1.6-3.9,3.9-3.9h7.9c2.4,0,3.9,1.6,3.9,3.9V318.2z M-111.3,318.2c0,2.4-1.6,3.9-3.9,3.9h-7.9
	c-2.4,0-3.9-1.6-3.9-3.9v-23.6c0-2.4,1.6-3.9,3.9-3.9h7.9c2.4,0,3.9,1.6,3.9,3.9V318.2z"/>
</svg>
