<?xml version="1.0" encoding="utf-8"?>
<!-- Generator: Adobe Illustrator 19.0.0, SVG Export Plug-In . SVG Version: 6.00 Build 0)  -->
<svg version="1.1" id="Layer_1" xmlns="http://www.w3.org/2000/svg" xmlns:xlink="http://www.w3.org/1999/xlink" x="0px" y="0px"
	 viewBox="0 0 136 136" enable-background="new 0 0 136 136" xml:space="preserve">
<polygon id="XMLID_22_" fill="#FFAE85" stroke="#0033FF" stroke-width="5" stroke-miterlimit="10" points="125.3,33.2 103.3,11.2 
	103.3,11.2 11.3,11.2 11.3,125.2 125.3,125.2 "/>
<path id="XMLID_35_" fill="#FFD7C2" stroke="#0033FF" stroke-width="5" stroke-miterlimit="10" d="M83.2,47.2h-44c-3.3,0-6-2.7-6-6
	v-30h56v30C89.2,44.5,86.5,47.2,83.2,47.2z"/>
<rect id="XMLID_10_" x="33.3" y="69.2" fill="#FFD7C2" stroke="#0033FF" stroke-width="5" stroke-miterlimit="10" width="70" height="56"/>
<rect id="XMLID_23_" x="33.3" y="69.2" fill="#FFC2A3" width="70" height="8"/>
<rect id="XMLID_37_" x="33.3" y="117.2" fill="#FFC2A3" width="70" height="8"/>
<rect id="XMLID_38_" x="33.3" y="69.2" fill="#FFC2A3" width="8" height="56"/>
<rect id="XMLID_39_" x="95.3" y="69.2" fill="#FFC2A3" width="8" height="56"/>
<rect id="XMLID_36_" x="33.3" y="69.2" fill="none" stroke="#0033FF" stroke-width="5" stroke-miterlimit="10" width="70" height="56"/>
<path id="XMLID_25_" fill="#FFC2A3" d="M41.2,47.2h-2c-3.3,0-6-2.7-6-6v-30h8V47.2z"/>
<path id="XMLID_30_" fill="none" stroke="#0033FF" stroke-width="5" stroke-miterlimit="10" d="M83.2,47.2h-44c-3.3,0-6-2.7-6-6v-30
	h56v30C89.2,44.5,86.5,47.2,83.2,47.2z"/>
<rect id="XMLID_41_" x="65.2" y="23.2" fill="#FF9A66" stroke="#0033FF" stroke-width="5" stroke-miterlimit="10" width="12" height="12"/>
<rect id="XMLID_29_" x="11.3" y="11.2" fill="#FF9A66" width="8" height="114"/>
<polygon id="XMLID_34_" fill="#FF9A66" points="125.3,125.2 117.3,125.2 117.3,23.2 125.3,31.2 "/>
<polygon id="XMLID_31_" fill="none" stroke="#0033FF" stroke-width="5" stroke-miterlimit="10" points="125.3,33.2 103.3,11.2 
	103.3,11.2 11.3,11.2 11.3,125.2 125.3,125.2 "/>
</svg>
