<?xml version="1.0" encoding="utf-8"?>
<!-- Generator: Adobe Illustrator 19.0.0, SVG Export Plug-In . SVG Version: 6.00 Build 0)  -->
<svg version="1.1" id="Layer_1" xmlns="http://www.w3.org/2000/svg" xmlns:xlink="http://www.w3.org/1999/xlink" x="0px" y="0px"
	 viewBox="0 0 890 790" enable-background="new 0 0 890 790" xml:space="preserve">
<polygon id="XMLID_17_" fill="#FFC2A3" stroke="#0033FF" stroke-width="10" stroke-linejoin="round" stroke-miterlimit="10" points="
	445.2,367.2 85.2,575 85.2,215 445.2,7.2 "/>
<polygon id="XMLID_20_" fill="#FFAE85" stroke="#0033FF" stroke-width="10" stroke-linejoin="round" stroke-miterlimit="10" points="
	805.2,575 445.2,367.2 445.2,7.2 805.2,215 "/>
<polygon id="XMLID_19_" fill="#FF9A66" stroke="#0033FF" stroke-width="10" stroke-linejoin="round" stroke-miterlimit="10" points="
	397,395 445.2,367.2 493.5,395 445.2,422.8 "/>
<g id="XMLID_135_">
	<g id="XMLID_116_">
		<g id="XMLID_127_">
			
				<polygon id="XMLID_131_" fill="#6685FF" stroke="#0033FF" stroke-width="10" stroke-linejoin="round" stroke-miterlimit="10" points="
				744.2,475.9 464.2,314.2 464.2,34.2 744.2,195.9 			"/>
			
				<polygon id="XMLID_130_" fill="#CCD6FF" stroke="#0033FF" stroke-width="10" stroke-linejoin="round" stroke-miterlimit="10" points="
				654.2,275.8 744.2,223.9 464.2,62.2 374.2,114.2 			"/>
			
				<polygon id="XMLID_129_" fill="#335CFF" stroke="#0033FF" stroke-width="10" stroke-linejoin="round" stroke-miterlimit="10" points="
				654.2,527.8 374.2,366.2 374.2,86.2 654.2,247.8 			"/>
			
				<polygon id="XMLID_128_" fill="#99ADFF" stroke="#0033FF" stroke-width="10" stroke-linejoin="round" stroke-miterlimit="10" points="
				744.2,195.9 654.2,247.8 654.2,527.8 744.2,475.9 			"/>
		</g>
		<g id="XMLID_122_">
			
				<polygon id="XMLID_126_" fill="#6685FF" stroke="#0033FF" stroke-width="10" stroke-linejoin="round" stroke-miterlimit="10" points="
				630.2,541.8 350.2,380.2 350.2,100.2 630.2,261.8 			"/>
			
				<polygon id="XMLID_125_" fill="#CCD6FF" stroke="#0033FF" stroke-width="10" stroke-linejoin="round" stroke-miterlimit="10" points="
				540.2,341.8 630.2,289.8 350.2,128.2 260.2,180.2 			"/>
			
				<polygon id="XMLID_124_" fill="#335CFF" stroke="#0033FF" stroke-width="10" stroke-linejoin="round" stroke-miterlimit="10" points="
				540.2,593.8 260.2,432.2 260.2,152.2 540.2,313.8 			"/>
			
				<polygon id="XMLID_123_" fill="#99ADFF" stroke="#0033FF" stroke-width="10" stroke-linejoin="round" stroke-miterlimit="10" points="
				630.2,261.8 540.2,313.8 540.2,593.8 630.2,541.8 			"/>
		</g>
		<g id="XMLID_121_">
			
				<polygon id="XMLID_120_" fill="#6685FF" stroke="#0033FF" stroke-width="10" stroke-linejoin="round" stroke-miterlimit="10" points="
				516.2,607.8 236.2,446.2 236.2,166.2 516.2,327.8 			"/>
			
				<polygon id="XMLID_119_" fill="#CCD6FF" stroke="#0033FF" stroke-width="10" stroke-linejoin="round" stroke-miterlimit="10" points="
				426.2,407.8 516.2,355.8 236.2,194.2 146.2,246.1 			"/>
			
				<polygon id="XMLID_117_" fill="#335CFF" stroke="#0033FF" stroke-width="10" stroke-linejoin="round" stroke-miterlimit="10" points="
				426.2,659.8 146.2,498.1 146.2,218.1 426.2,379.8 			"/>
			
				<polygon id="XMLID_118_" fill="#99ADFF" stroke="#0033FF" stroke-width="10" stroke-linejoin="round" stroke-miterlimit="10" points="
				516.2,327.8 426.2,379.8 426.2,659.8 516.2,607.8 			"/>
		</g>
	</g>
</g>
<polygon id="XMLID_16_" fill="#FFEBE0" stroke="#0033FF" stroke-width="10" stroke-linejoin="round" stroke-miterlimit="10" points="
	445.2,782.8 85.2,575 85.2,215 445.2,422.8 "/>
<polygon id="XMLID_18_" fill="#FFD7C2" stroke="#0033FF" stroke-width="10" stroke-linejoin="round" stroke-miterlimit="10" points="
	805.2,575 445.2,782.8 445.2,422.8 805.2,215 "/>
<rect id="XMLID_21_" x="455.5" y="308.7" transform="matrix(0.866 -0.5 0.5 0.866 -103.5895 383.2418)" fill="#FFC2A3" stroke="#0033FF" stroke-width="10" stroke-linejoin="round" stroke-miterlimit="10" width="415.7" height="152.4"/>
<rect id="XMLID_23_" x="19.3" y="308.7" transform="matrix(-0.866 -0.5 0.5 -0.866 231.3763 831.8408)" fill="#FFD7C2" stroke="#0033FF" stroke-width="10" stroke-linejoin="round" stroke-miterlimit="10" width="415.7" height="152.4"/>
<path id="XMLID_137_" fill="none" stroke="#0033FF" stroke-width="10" stroke-linejoin="round" stroke-miterlimit="10" d="M805,575"
	/>
</svg>
