<?xml version="1.0" encoding="utf-8"?>
<!-- Generator: Adobe Illustrator 19.0.0, SVG Export Plug-In . SVG Version: 6.00 Build 0)  -->
<svg version="1.1" id="Capa_1" xmlns="http://www.w3.org/2000/svg" xmlns:xlink="http://www.w3.org/1999/xlink" x="0px" y="0px"
	 viewBox="-383 145 512 512" style="enable-background:new -383 145 512 512;" xml:space="preserve">
<style type="text/css">
	.st0{fill:#666666;}
</style>
<g>
	<g>
		<path class="st0" d="M119.5,236c-0.1,0-0.1,0-0.2-0.1c0,0,0,0-0.1,0l-241-90c-3.4-1.3-7.1-1.3-10.5,0l-241,90c0,0,0,0-0.1,0
			c0,0-0.1,0-0.1,0.1c-5,2-8.7,6.5-9.4,12c0,0.1,0,0.2,0,0.3c-0.1,0.5-0.1,1.1-0.1,1.6c0,0,0,0,0,0v272c0,5.7,3.2,10.9,8.3,13.4
			l241,120c0,0,0,0,0,0c3.7,1.8,7.6,1.6,6.6,1.6c1.7,0,3.6-0.3,5.2-0.9l241-90c5.9-2.2,9.8-7.8,9.8-14.1V250
			C129,244,125.3,238.3,119.5,236z M-11.2,219.2l-195,75.1l-37-13.8l193.1-75.9L-11.2,219.2z M-232,316.8c0,0.2,0,0.5,0,0.7v58.2
			l-30-15v-55.1L-232,316.8z M-127,176l34.7,13l-192.8,75.8l-39.9-14.8L-127,176z M-292,543.1l-61-30.4V271.6l61,22.8V370
			c0,5.7,3.2,10.9,8.3,13.4l60,30c9.9,5,21.7-2.3,21.7-13.4v-72l60,22.4v267.4l-60-29.9 M-127,324l-36.8-13.8l194.9-75.1l40,14.9
			L-127,324z M99,541.6l-211,78.8v-270l211-78.8L99,541.6L99,541.6z"/>
	</g>
</g>
</svg>
