<?xml version="1.0" encoding="utf-8"?>
<!-- Generator: Adobe Illustrator 19.0.0, SVG Export Plug-In . SVG Version: 6.00 Build 0)  -->
<svg version="1.1" id="Capa_1" xmlns="http://www.w3.org/2000/svg" xmlns:xlink="http://www.w3.org/1999/xlink" x="0px" y="0px"
	 viewBox="-415 176.2 448.8 448.8" style="enable-background:new -415 176.2 448.8 448.8;" xml:space="preserve">
<style type="text/css">
	.st0{fill:#6685FF;}
	.st1{fill:#335CFF;}
	.st2{fill:#0033FF;}
</style>
<g>
	<polygon class="st0" points="-115.8,468.6 -190.6,424.6 -115.8,381 -41,337 33.8,381 -41,424.6 	"/>
	<polygon class="st1" points="-191.4,424.2 -191.4,595.8 -43,509.8 -43,425.8 -115.8,468.6 -190.6,424.6 	"/>
	<polygon class="st0" points="-265.4,468.6 -190.6,424.6 -265.4,381 -340.2,337 -415,381 -340.2,424.6 	"/>
	<polygon class="st2" points="-190.6,249 -115.8,293 -41,337 -115.8,381 -190.6,424.6 -265.4,381 -340.2,337 -265.4,293 	"/>
	<g>
		<polygon class="st0" points="-265.4,205.4 -190.6,249 -265.4,293 -340.2,337 -415,293 -340.2,249 		"/>
		<polygon class="st0" points="-115.8,205.4 -190.6,249 -115.8,293 -41,337 33.8,293 -41,249 		"/>
	</g>
	<polygon class="st1" points="-191.4,425.4 -191.4,595.8 -340.2,509.8 -340.2,424.6 -265.4,468.6 	"/>
	<polygon class="st2" points="-265.4,293 -340.2,337 -265.4,381 -241.4,395 -190.6,365.4 -190.6,249 	"/>
	<polygon class="st2" points="-190.6,249 -190.6,365.4 -139.8,395 -115.8,381 -41,337 -115.8,293 	"/>
</g>
</svg>
