<?xml version="1.0" encoding="utf-8"?>
<!-- Generator: Adobe Illustrator 19.0.0, SVG Export Plug-In . SVG Version: 6.00 Build 0)  -->
<svg version="1.1" id="Layer_1" xmlns="http://www.w3.org/2000/svg" xmlns:xlink="http://www.w3.org/1999/xlink" x="0px" y="0px"
	 viewBox="-383 145 512 512" style="enable-background:new -383 145 512 512;" xml:space="preserve">
<style type="text/css">
	.st0{fill:#FF9A66;}
	.st1{fill:#666666;}
</style>
<g>
	<g>
		<rect x="48.4" y="625.9" class="st0" width="62.3" height="31.1"/>
	</g>
</g>
<g>
	<g>
		<rect x="-45" y="625.9" class="st0" width="62.3" height="31.1"/>
	</g>
</g>
<g>
	<g>
		<rect x="-138.5" y="625.9" class="st0" width="62.3" height="31.1"/>
	</g>
</g>
<g>
	<g>
		<rect x="-231.9" y="625.9" class="st0" width="62.3" height="31.1"/>
	</g>
</g>
<g>
	<g>
		<path class="st1" d="M81.8,173.9C63.1,155.3,38.4,145,12,145c-26.3,0-51.1,10.3-69.7,28.9l-234.5,234.5l10,26.7l-82.5,82.5V657
			h10.6h91v-31.1h-48.5l110.1-110.1l26.7,10L-5.7,356.7c4.5,1,9.2,1.6,14.1,1.6c18.1,0,36-7.6,49.3-20.8l24.1-24.1
			C120.2,274.9,120.2,212.3,81.8,173.9z M-105.4,265.6l25.7,25.7l-110,110l-25.7-25.7L-105.4,265.6z M-333.5,603.8v-73.4l63.3-63.3
			l10,26.7l26.7,10L-333.5,603.8z M-182.6,489.6l-53.4-20l-20-53.4l18.6-18.6L-164,471L-182.6,489.6z M-142,449l-25.7-25.7l110-110
			L-32,339L-142,449z M35.6,315.4c-7.5,7.5-17.4,11.7-27.2,11.7c-3.4,0-6.7-0.5-9.7-1.5l-82.1-82.1l36.7-36.7l95.4,95.4L35.6,315.4z
			 M69.5,279l-92.8-92.8c10.5-6.5,22.7-10,35.4-10c18,0,35,7,47.7,19.8C82.3,218.4,85.5,253,69.5,279z"/>
	</g>
</g>
<path d="M-311.5,625.9"/>
</svg>
