<?xml version="1.0" encoding="utf-8"?>
<!-- Generator: Adobe Illustrator 19.0.0, SVG Export Plug-In . SVG Version: 6.00 Build 0)  -->
<svg version="1.1" id="Capa_1" xmlns="http://www.w3.org/2000/svg" xmlns:xlink="http://www.w3.org/1999/xlink" x="0px" y="0px"
	 viewBox="-611 373 56 56" style="enable-background:new -611 373 56 56;" xml:space="preserve">
<style type="text/css">
	.st0{fill:#335CFF;}
	.st1{fill:#E5EAFF;}
	.st2{fill:#6685FF;}
</style>
<path class="st0" d="M-563.2,381.2c-10.9-10.9-28.7-10.9-39.6,0s-10.9,28.7,0,39.6s28.7,10.9,39.6,0S-552.3,392.1-563.2,381.2z
	 M-578,406c-2.7,2.7-7.2,2.7-9.9,0c-2.7-2.7-2.7-7.2,0-9.9c2.7-2.7,7.2-2.7,9.9,0C-575.3,398.8-575.3,403.2-578,406z"/>
<path class="st1" d="M-575.2,393.2c-4.3-4.3-11.3-4.3-15.6,0c-4.3,4.3-4.3,11.3,0,15.6c4.3,4.3,11.3,4.3,15.6,0
	C-570.9,404.5-570.9,397.5-575.2,393.2z M-580.9,403.1c-1.2,1.2-3.1,1.2-4.2,0s-1.2-3.1,0-4.2s3.1-1.2,4.2,0S-579.7,402-580.9,403.1
	z"/>
<g>
	<path class="st2" d="M-575.2,408.8c-0.8,0.8-1.6,1.4-2.5,1.9l8.2,14.9c2.3-1.3,4.4-2.8,6.4-4.8c1.9-1.9,3.5-4.1,4.8-6.4l-14.9-8.2
		C-573.8,407.2-574.5,408-575.2,408.8z"/>
	<path class="st2" d="M-590.8,393.2c0.8-0.8,1.6-1.4,2.5-1.9l-8.2-14.9c-2.3,1.3-4.4,2.8-6.4,4.8c-1.9,1.9-3.5,4.1-4.8,6.4l14.9,8.2
		C-592.2,394.8-591.5,394-590.8,393.2z"/>
</g>
</svg>
