<?xml version="1.0" encoding="utf-8"?>
<!-- Generator: Adobe Illustrator 19.0.0, SVG Export Plug-In . SVG Version: 6.00 Build 0)  -->
<svg version="1.1" id="Capa_1" xmlns="http://www.w3.org/2000/svg" xmlns:xlink="http://www.w3.org/1999/xlink" x="0px" y="0px"
	 viewBox="-610 372 58 58" style="enable-background:new -610 372 58 58;" xml:space="preserve">
<style type="text/css">
	.st0{fill:#FFAE85;}
	.st1{fill:#FFC2A3;}
	.st2{fill:#FF9A66;}
</style>
<g>
	<rect x="-604" y="372" class="st0" width="46" height="58"/>
	<path class="st1" d="M-568.1,386h-25.8c-0.1,0.1-0.1,0-0.2,0l-9.5-13.6c-0.1-0.1,0-0.4,0.2-0.4h44.9c0.2,0,0.3,0.2,0.2,0.4
		l-9.5,13.6C-568,386-568,386.1-568.1,386z"/>
	<path class="st1" d="M-568.1,422h-25.8c-0.1-0.1-0.1,0-0.2,0l-9.5,7.6c-0.1,0.1,0,0.4,0.2,0.4h44.9c0.2,0,0.3-0.2,0.2-0.4l-9.5-7.6
		C-568,422-568,421.9-568.1,422z"/>
	<rect x="-582" y="386" class="st2" width="2" height="35.9"/>
</g>
</svg>
