<?xml version="1.0" encoding="utf-8"?>
<!-- Generator: Adobe Illustrator 19.0.0, SVG Export Plug-In . SVG Version: 6.00 Build 0)  -->
<svg version="1.1" id="Capa_1" xmlns="http://www.w3.org/2000/svg" xmlns:xlink="http://www.w3.org/1999/xlink" x="0px" y="0px"
	 viewBox="-610 372 58 58" style="enable-background:new -610 372 58 58;" xml:space="preserve">
<style type="text/css">
	.st0{fill:#FF9A66;}
	.st1{fill:#FFAE85;}
	.st2{fill:#FFC2A3;}
</style>
<g>
	<polygon class="st0" points="-610,398.1 -610,429.9 -610,430 -609.9,430 -552.5,430 -552.1,430 -552,430 -552,429.9 -552,398.1 
		-552,398 -610,398 	"/>
	<path class="st1" d="M-579.1,372.7c-1-1-2.7-1-3.7,0L-610,398v0h58v0L-579.1,372.7z"/>
	<polygon class="st1" points="-610,430 -610,398 -589,414 	"/>
	<polygon class="st1" points="-552,430 -552,398 -573,414 	"/>
	<path class="st2" d="M-553,429.2l-20-15.2h-16l-20,15.2c-0.4,0.3-1,0-1-0.5v1.3h58v-1.3C-552,429.2-552.6,429.5-553,429.2z"/>
</g>
</svg>
