<?xml version="1.0" encoding="utf-8"?>
<!-- Generator: Adobe Illustrator 19.0.0, SVG Export Plug-In . SVG Version: 6.00 Build 0)  -->
<svg version="1.1" id="Layer_1" xmlns="http://www.w3.org/2000/svg" xmlns:xlink="http://www.w3.org/1999/xlink" x="0px" y="0px"
	 viewBox="-55 57 24 24" enable-background="new -55 57 24 24" xml:space="preserve">
<path fill="none" stroke="#999999" stroke-width="2" stroke-linecap="round" stroke-linejoin="round" d="M-33,73.9v3
	c0,1.1-0.9,2-2,2c-0.1,0-0.1,0-0.2,0c-3.1-0.3-6-1.4-8.6-3.1c-2.4-1.5-4.5-3.6-6-6c-1.7-2.6-2.7-5.6-3.1-8.7
	c-0.1-1.1,0.7-2.1,1.8-2.2c0.1,0,0.1,0,0.2,0h3c1,0,1.9,0.7,2,1.7c0.1,1,0.4,1.9,0.7,2.8c0.3,0.7,0.1,1.6-0.5,2.1l-1.3,1.3
	c1.4,2.5,3.5,4.6,6,6l1.3-1.3c0.6-0.5,1.4-0.7,2.1-0.4c0.9,0.3,1.8,0.6,2.8,0.7C-33.7,72-33,72.9-33,73.9z"/>
</svg>
