<?xml version="1.0" encoding="utf-8"?>
<!-- Generator: Adobe Illustrator 19.0.0, SVG Export Plug-In . SVG Version: 6.00 Build 0)  -->
<svg version="1.1" id="Layer_1" xmlns="http://www.w3.org/2000/svg" xmlns:xlink="http://www.w3.org/1999/xlink" x="0px" y="0px"
	 viewBox="0 0 136 136" enable-background="new 0 0 136 136" xml:space="preserve">
<polygon id="XMLID_50_" fill="#CCD6FF" stroke="#0033FF" stroke-width="5" stroke-miterlimit="10" points="68.5,10.5 4.5,54.5 
	4.5,82.5 4.5,126.5 132.5,126.5 132.5,82.5 132.5,54.5 "/>
<line id="XMLID_43_" fill="none" stroke="#0033FF" stroke-width="5" stroke-miterlimit="10" x1="4.5" y1="54.5" x2="132.5" y2="54.5"/>
<polygon id="XMLID_55_" fill="#99ADFF" points="68.6,82.5 4.5,126.5 4.5,118.5 68.6,74.5 "/>
<polygon id="XMLID_56_" fill="#99ADFF" points="132.5,118.5 68.6,74.5 68.6,82.5 132.5,126.5 "/>
<path id="XMLID_45_" fill="#99ADFF" stroke="#0033FF" stroke-width="5" stroke-miterlimit="10" d="M68.5,98.5L68.5,98.5L7.2,56.3
	c-0.8-0.6-0.4-1.8,0.6-1.8h121.6c1,0,1.4,1.3,0.6,1.8L68.5,98.5z"/>
<path id="XMLID_52_" fill="none" stroke="#0033FF" stroke-width="5" stroke-miterlimit="10" d="M68.5,98.5L68.5,98.5L7.2,56.3
	c-0.8-0.6-0.4-1.8,0.6-1.8h121.6c1,0,1.4,1.3,0.6,1.8L68.5,98.5z"/>
<path id="XMLID_42_" fill="#CCD6FF" stroke="#0033FF" stroke-width="5" stroke-miterlimit="10" d="M129.4,126.5H7.8
	c-1,0-1.4-1.3-0.6-1.8l61.3-42.2l0,0l61.3,42.2C130.8,125.2,130.4,126.5,129.4,126.5z"/>
<polygon id="XMLID_49_" fill="#99ADFF" points="121,118.5 16.2,118.5 4.5,126.5 132.5,126.5 "/>
<polygon id="XMLID_53_" fill="none" stroke="#0033FF" stroke-width="5" stroke-miterlimit="10" points="68.5,10.5 4.5,54.5 
	4.5,82.5 4.5,126.5 132.5,126.5 132.5,82.5 132.5,54.5 "/>
<path id="XMLID_54_" fill="none" stroke="#0033FF" stroke-width="5" stroke-miterlimit="10" d="M129.4,126.5H7.8
	c-1,0-1.4-1.3-0.6-1.8l61.3-42.2l0,0l61.3,42.2C130.8,125.2,130.4,126.5,129.4,126.5z"/>
<path id="XMLID_1_" fill="#CCD6FF" stroke="#0033FF" stroke-width="5" stroke-miterlimit="10" d="M68.5,10.5L68.5,10.5L7.2,52.7
	c-0.8,0.6-0.4,1.8,0.6,1.8h121.6c1,0,1.4-1.3,0.6-1.8L68.5,10.5z"/>
</svg>
