<?xml version="1.0" encoding="utf-8"?>
<!-- Generator: Adobe Illustrator 19.0.0, SVG Export Plug-In . SVG Version: 6.00 Build 0)  -->
<svg version="1.1" id="Layer_1" xmlns="http://www.w3.org/2000/svg" xmlns:xlink="http://www.w3.org/1999/xlink" x="0px" y="0px"
	 viewBox="0 0 518 304" enable-background="new 0 0 518 304" xml:space="preserve">
<polygon id="XMLID_1_" fill="#FFC2A3" stroke="#0033FF" stroke-width="5" stroke-miterlimit="10" points="469.3,234.3 491.3,212.3 
	513.3,234.3 513.3,298.3 469.3,298.3 "/>
<circle id="XMLID_26_" fill="#6685FF" stroke="#6685FF" stroke-width="5" stroke-miterlimit="10" cx="491.3" cy="238.3" r="6"/>
<circle id="XMLID_2_" fill="#FFFFFF" stroke="#0033FF" stroke-width="5" stroke-miterlimit="10" cx="491.3" cy="236.3" r="6"/>
<g id="XMLID_19_">
	<path id="XMLID_12_" fill="#FFD7C2" stroke="#0033FF" stroke-width="5" stroke-miterlimit="10" d="M217.3,94.3h8l0,28l32-28h56
		c11,0,20-9,20-20v-50c0-11-9-20-20-20h-96c-11,0-20,9-20,20v50C197.3,85.4,206.3,94.3,217.3,94.3z"/>
	<g id="XMLID_15_">
		<circle id="XMLID_13_" fill="#FFFFFF" stroke="#0033FF" stroke-width="5" stroke-miterlimit="10" cx="251.3" cy="35.3" r="8"/>
		<circle id="XMLID_16_" fill="#FFFFFF" stroke="#0033FF" stroke-width="5" stroke-miterlimit="10" cx="279.3" cy="63.3" r="8"/>
		
			<line id="XMLID_14_" fill="#FFD7C2" stroke="#0033FF" stroke-width="5" stroke-miterlimit="10" x1="242.7" y1="72" x2="288" y2="26.7"/>
	</g>
</g>
<g id="XMLID_23_">
	<path id="XMLID_17_" fill="#99ADFF" stroke="#0033FF" stroke-width="5" stroke-miterlimit="10" d="M435.3,298.3h-130v-176h130
		c3.3,0,6,2.7,6,6v164C441.3,295.6,438.6,298.3,435.3,298.3z"/>
	
		<rect id="XMLID_20_" x="329.3" y="122.3" fill="#6685FF" stroke="#6685FF" stroke-width="5" stroke-miterlimit="10" width="4" height="176"/>
	
		<rect id="XMLID_18_" x="317.3" y="122.3" fill="#335CFF" stroke="#0033FF" stroke-width="5" stroke-miterlimit="10" width="12" height="176"/>
	<polygon id="XMLID_22_" fill="#6685FF" stroke="#6685FF" stroke-width="5" stroke-miterlimit="10" points="413.3,178.3 
		399.3,170.3 385.3,178.3 385.3,122.3 413.3,122.3 	"/>
	<path id="XMLID_24_" fill="none" stroke="#0033FF" stroke-width="5" stroke-miterlimit="10" d="M435.3,298.3h-130v-176h130
		c3.3,0,6,2.7,6,6v164C441.3,295.6,438.6,298.3,435.3,298.3z"/>
	<polygon id="XMLID_21_" fill="#FFC2A3" stroke="#0033FF" stroke-width="5" stroke-miterlimit="10" points="413.3,178.3 
		399.3,166.3 385.3,178.3 385.3,122.3 413.3,122.3 	"/>
	<polygon id="XMLID_42_" fill="none" stroke="#0033FF" stroke-width="5" stroke-miterlimit="10" points="413.3,178.3 399.3,166.3 
		385.3,178.3 385.3,122.3 413.3,122.3 	"/>
</g>
<g id="XMLID_31_">
	
		<rect id="XMLID_29_" x="95.3" y="190.3" fill="#99ADFF" stroke="#0033FF" stroke-width="5" stroke-miterlimit="10" width="176" height="108"/>
	
		<rect id="XMLID_28_" x="89.3" y="154.3" fill="#99ADFF" stroke="#0033FF" stroke-width="5" stroke-miterlimit="10" width="188" height="36"/>
	<path id="XMLID_27_" fill="#FFFFFF" stroke="#0033FF" stroke-width="5" stroke-miterlimit="10" d="M218.3,230.3h-70
		c-5.5,0-10-4.5-10-10v0c0-5.5,4.5-10,10-10h70c5.5,0,10,4.5,10,10v0C228.3,225.9,223.9,230.3,218.3,230.3z"/>
	
		<rect id="XMLID_30_" x="95.3" y="190.3" fill="#6685FF" stroke="#6685FF" stroke-width="5" stroke-miterlimit="10" width="176" height="6"/>
	
		<rect id="XMLID_32_" x="95.3" y="190.3" fill="none" stroke="#0033FF" stroke-width="5" stroke-miterlimit="10" width="176" height="108"/>
</g>
<g id="XMLID_48_">
	<path id="XMLID_33_" fill="#FFD7C2" stroke="#0033FF" stroke-width="5" stroke-miterlimit="10" d="M61.3,298.3h-56v-58
		c0-3.3,2.7-6,6-6h44c3.3,0,6,2.7,6,6V298.3z"/>
	
		<rect id="XMLID_34_" x="17.3" y="222.3" fill="#FFC2A3" stroke="#0033FF" stroke-width="5" stroke-miterlimit="10" width="32" height="12"/>
	
		<rect id="XMLID_35_" x="11.3" y="206.3" fill="#FFC2A3" stroke="#0033FF" stroke-width="5" stroke-miterlimit="10" width="44" height="16"/>
	<path id="XMLID_37_" fill="#FFC2A3" stroke="#FFC2A3" stroke-width="5" stroke-miterlimit="10" d="M13.3,234.3h-2c-3.3,0-6,2.7-6,6
		v58h8V234.3z"/>
	<path id="XMLID_40_" fill="#FFC2A3" stroke="#FFC2A3" stroke-width="5" stroke-miterlimit="10" d="M53.3,234.3h2c3.3,0,6,2.7,6,6
		v58h-8V234.3z"/>
	<path id="XMLID_39_" fill="none" stroke="#0033FF" stroke-width="5" stroke-miterlimit="10" d="M61.3,298.3h-56v-58
		c0-3.3,2.7-6,6-6h44c3.3,0,6,2.7,6,6V298.3z"/>
	
		<rect id="XMLID_36_" x="5.3" y="252.3" fill="#99ADFF" stroke="#0033FF" stroke-width="5" stroke-miterlimit="10" width="56" height="28"/>
	
		<rect id="XMLID_38_" x="17.3" y="222.3" fill="#FFAE85" stroke="#FFAE85" stroke-width="5" stroke-miterlimit="10" width="6" height="12"/>
	
		<rect id="XMLID_46_" x="11.3" y="206.3" fill="#FFAE85" stroke="#FFAE85" stroke-width="5" stroke-miterlimit="10" width="8" height="16"/>
	
		<rect id="XMLID_47_" x="47.3" y="206.3" fill="#FFAE85" stroke="#FFAE85" stroke-width="5" stroke-miterlimit="10" width="8" height="16"/>
	
		<rect id="XMLID_44_" x="43.3" y="222.3" fill="#FFAE85" stroke="#FFAE85" stroke-width="5" stroke-miterlimit="10" width="6" height="12"/>
	
		<rect id="XMLID_41_" x="17.3" y="222.3" fill="none" stroke="#0033FF" stroke-width="5" stroke-miterlimit="10" width="32" height="12"/>
	
		<rect id="XMLID_45_" x="11.3" y="206.3" fill="none" stroke="#0033FF" stroke-width="5" stroke-miterlimit="10" width="44" height="16"/>
</g>
</svg>
