<?xml version="1.0" encoding="utf-8"?>
<!-- Generator: Adobe Illustrator 19.0.0, SVG Export Plug-In . SVG Version: 6.00 Build 0)  -->
<svg version="1.1" id="Layer_1" xmlns="http://www.w3.org/2000/svg" xmlns:xlink="http://www.w3.org/1999/xlink" x="0px" y="0px"
	 viewBox="0 0 340 260" enable-background="new 0 0 340 260" xml:space="preserve">
<g id="XMLID_25_">
	<g id="XMLID_45_">
		<path id="XMLID_47_" fill="#DDDDDD" stroke="#DDDDDD" stroke-width="5" stroke-miterlimit="10" d="M133.3,250H9.3V74h124
			c6.6,0,12,5.4,12,12v152C145.3,244.6,140,250,133.3,250z"/>
		<path id="XMLID_46_" fill="#DDDDDD" stroke="#DDDDDD" stroke-width="5" stroke-miterlimit="10" d="M133.3,238H9.3V62h124
			c6.6,0,12,5.4,12,12v152C145.3,232.6,140,238,133.3,238z"/>
	</g>
	<g id="XMLID_42_">
		<path id="XMLID_44_" fill="#DDDDDD" stroke="#DDDDDD" stroke-width="5" stroke-miterlimit="10" d="M133.3,238H9.3V62h124
			c6.6,0,12,5.4,12,12v152C145.3,232.6,140,238,133.3,238z"/>
		<path id="XMLID_43_" fill="#DDDDDD" stroke="#DDDDDD" stroke-width="5" stroke-miterlimit="10" d="M133.3,226H9.3V50h124
			c6.6,0,12,5.4,12,12v152C145.3,220.6,140,226,133.3,226z"/>
	</g>
	<g id="XMLID_39_">
		<path id="XMLID_41_" fill="#DDDDDD" stroke="#DDDDDD" stroke-width="5" stroke-miterlimit="10" d="M133.3,226H9.3V50h124
			c6.6,0,12,5.4,12,12v152C145.3,220.6,140,226,133.3,226z"/>
		<path id="XMLID_40_" fill="#DDDDDD" stroke="#DDDDDD" stroke-width="5" stroke-miterlimit="10" d="M133.3,214H9.3V38h124
			c6.6,0,12,5.4,12,12v152C145.3,208.6,140,214,133.3,214z"/>
	</g>
	<path id="XMLID_38_" fill="#DDDDDD" stroke="#DDDDDD" stroke-width="5" stroke-miterlimit="10" d="M133.3,214H9.3V38h124
		c6.6,0,12,5.4,12,12v152C145.3,208.6,140,214,133.3,214z"/>
	<path id="XMLID_37_" fill="#DDDDDD" stroke="#DDDDDD" stroke-width="5" stroke-miterlimit="10" d="M133.3,202H9.3V26h124
		c6.6,0,12,5.4,12,12v152C145.3,196.6,140,202,133.3,202z"/>
	<path id="XMLID_36_" fill="#DDDDDD" stroke="#DDDDDD" stroke-width="5" stroke-miterlimit="10" d="M301.3,250h-124V74h124
		c6.6,0,12,5.4,12,12v152C313.3,244.6,308,250,301.3,250z"/>
	<path id="XMLID_35_" fill="#DDDDDD" stroke="#DDDDDD" stroke-width="5" stroke-miterlimit="10" d="M301.3,238h-124V62h124
		c6.6,0,12,5.4,12,12v152C313.3,232.6,308,238,301.3,238z"/>
	
		<rect id="XMLID_34_" x="9.3" y="92" fill="#DDDDDD" stroke="#DDDDDD" stroke-width="5" stroke-miterlimit="10" width="136" height="56"/>
	
		<line id="XMLID_33_" fill="#DDDDDD" stroke="#DDDDDD" stroke-width="5" stroke-miterlimit="10" x1="29.3" y1="26" x2="29.3" y2="202"/>
	
		<rect id="XMLID_32_" x="9.3" y="86" fill="#DDDDDD" stroke="#DDDDDD" stroke-width="5" stroke-miterlimit="10" width="136" height="56"/>
	
		<rect id="XMLID_31_" x="119.6" y="26" fill="#DDDDDD" stroke="#DDDDDD" stroke-width="5" stroke-miterlimit="10" width="8" height="176"/>
	
		<rect id="XMLID_30_" x="27.3" y="104" fill="#DDDDDD" stroke="#DDDDDD" stroke-width="5" stroke-miterlimit="10" width="20" height="20"/>
	
		<rect id="XMLID_29_" x="223.3" y="98" fill="#DDDDDD" stroke="#DDDDDD" stroke-width="5" stroke-miterlimit="10" width="44" height="44"/>
	
		<rect id="XMLID_28_" x="223.3" y="94" fill="#DDDDDD" stroke="#DDDDDD" stroke-width="5" stroke-miterlimit="10" width="44" height="44"/>
	<path id="XMLID_27_" fill="#DDDDDD" stroke="#DDDDDD" stroke-width="5" stroke-miterlimit="10" d="M133.3,202H9.3V26h124
		c6.6,0,12,5.4,12,12v152C145.3,196.6,140,202,133.3,202z"/>
	
		<rect id="XMLID_26_" x="177.3" y="62" fill="#DDDDDD" stroke="#DDDDDD" stroke-width="5" stroke-miterlimit="10" width="12" height="176"/>
</g>
<g id="XMLID_14_">
	<g id="XMLID_2_">
		<path id="XMLID_3_" fill="#FFFFFF" stroke="#0033FF" stroke-width="5" stroke-miterlimit="10" d="M149.3,234h-124V58h124
			c6.6,0,12,5.4,12,12v152C161.3,228.6,156,234,149.3,234z"/>
		<path id="XMLID_1_" fill="#99ADFF" stroke="#0033FF" stroke-width="5" stroke-miterlimit="10" d="M149.3,222h-124V46h124
			c6.6,0,12,5.4,12,12v152C161.3,216.6,156,222,149.3,222z"/>
	</g>
	<g id="XMLID_5_">
		<path id="XMLID_7_" fill="#FFFFFF" stroke="#0033FF" stroke-width="5" stroke-miterlimit="10" d="M149.3,222h-124V46h124
			c6.6,0,12,5.4,12,12v152C161.3,216.6,156,222,149.3,222z"/>
		<path id="XMLID_6_" fill="#99ADFF" stroke="#0033FF" stroke-width="5" stroke-miterlimit="10" d="M149.3,210h-124V34h124
			c6.6,0,12,5.4,12,12v152C161.3,204.6,156,210,149.3,210z"/>
	</g>
	<g id="XMLID_8_">
		<path id="XMLID_10_" fill="#FFFFFF" stroke="#0033FF" stroke-width="5" stroke-miterlimit="10" d="M149.3,210h-124V34h124
			c6.6,0,12,5.4,12,12v152C161.3,204.6,156,210,149.3,210z"/>
		<path id="XMLID_9_" fill="#99ADFF" stroke="#0033FF" stroke-width="5" stroke-miterlimit="10" d="M149.3,198h-124V22h124
			c6.6,0,12,5.4,12,12v152C161.3,192.6,156,198,149.3,198z"/>
	</g>
	<path id="XMLID_13_" fill="#FFFFFF" stroke="#0033FF" stroke-width="5" stroke-miterlimit="10" d="M149.3,198h-124V22h124
		c6.6,0,12,5.4,12,12v152C161.3,192.6,156,198,149.3,198z"/>
	<path id="XMLID_12_" fill="#99ADFF" stroke="#0033FF" stroke-width="5" stroke-miterlimit="10" d="M149.3,186h-124V10h124
		c6.6,0,12,5.4,12,12v152C161.3,180.6,156,186,149.3,186z"/>
	<path id="XMLID_16_" fill="#FFFFFF" stroke="#0033FF" stroke-width="5" stroke-miterlimit="10" d="M317.3,234h-124V58h124
		c6.6,0,12,5.4,12,12v152C329.3,228.6,324,234,317.3,234z"/>
	<path id="XMLID_15_" fill="#FFD7C2" stroke="#0033FF" stroke-width="5" stroke-miterlimit="10" d="M317.3,222h-124V46h124
		c6.6,0,12,5.4,12,12v152C329.3,216.6,324,222,317.3,222z"/>
	
		<rect id="XMLID_21_" x="25.3" y="76" fill="#6685FF" stroke="#6685FF" stroke-width="5" stroke-miterlimit="10" width="136" height="56"/>
	<line id="XMLID_4_" fill="none" stroke="#0033FF" stroke-width="5" stroke-miterlimit="10" x1="45.3" y1="10" x2="45.3" y2="186"/>
	
		<rect id="XMLID_17_" x="25.3" y="70" fill="#FFFFFF" stroke="#0033FF" stroke-width="5" stroke-miterlimit="10" width="136" height="56"/>
	
		<rect id="XMLID_18_" x="135.6" y="10" fill="#FFD7C2" stroke="#0033FF" stroke-width="5" stroke-miterlimit="10" width="8" height="176"/>
	
		<rect id="XMLID_19_" x="43.3" y="88" fill="#FFC2A3" stroke="#0033FF" stroke-width="5" stroke-miterlimit="10" width="20" height="20"/>
	
		<rect id="XMLID_23_" x="239.3" y="82" fill="#FFC2A3" stroke="#FFC2A3" stroke-width="5" stroke-miterlimit="10" width="44" height="44"/>
	
		<rect id="XMLID_11_" x="239.3" y="78" fill="#FFFFFF" stroke="#0033FF" stroke-width="5" stroke-miterlimit="10" width="44" height="44"/>
	<path id="XMLID_22_" fill="none" stroke="#0033FF" stroke-width="5" stroke-miterlimit="10" d="M149.3,186h-124V10h124
		c6.6,0,12,5.4,12,12v152C161.3,180.6,156,186,149.3,186z"/>
	
		<rect id="XMLID_20_" x="193.3" y="46" fill="#FFC2A3" stroke="#0033FF" stroke-width="5" stroke-miterlimit="10" width="12" height="176"/>
</g>
</svg>
