<?xml version="1.0" encoding="utf-8"?>
<!-- Generator: Adobe Illustrator 19.0.0, SVG Export Plug-In . SVG Version: 6.00 Build 0)  -->
<svg version="1.1" id="Layer_1" xmlns="http://www.w3.org/2000/svg" xmlns:xlink="http://www.w3.org/1999/xlink" x="0px" y="0px"
	 viewBox="-383 144.9 512.1 512.1" style="enable-background:new -383 144.9 512.1 512.1;" xml:space="preserve">
<style type="text/css">
	.st0{fill:#7383BF;}
	.st1{fill:#0033FF;}
	.st2{fill:#335CFF;}
	.st3{fill:#6685FF;}
</style>
<g>
	<path class="st0" d="M79.8,313.3c-2.2,0-4.4-0.9-6.1-2.5l-18.4-18.4c-3.4-3.4-3.4-8.9,0-12.3c3.4-3.4,8.9-3.4,12.3,0l18.4,18.4
		c3.4,3.4,3.4,8.9,0,12.3C84.2,312.5,82,313.3,79.8,313.3"/>
	<path class="st1" d="M-362,636L-362,636L-362,636c-3.9-42.8,11.4-85.1,41.8-115.4L30.7,169.6l73.6,73.6l-350.9,350.9
		C-277,624.6-319.3,639.9-362,636"/>
	<path class="st2" d="M98.2,237.1l-61.4-61.4l22.3-22.3c11.4-11.4,30-11.4,41.4,0l20.2,20.2c11.3,11.3,11.3,29.7,0,41L98.2,237.1z"
		/>
	<polygon class="st1" points="-43,464.2 -61.4,445.8 110.4,273.9 128.9,292.4 	"/>
	<g>
		<polygon class="st3" points="-239.3,513.3 -276.1,476.4 -24.6,224.9 12.3,261.7 		"/>
		<path class="st3" d="M-362,636c42.8,3.9,85.1-11.4,115.4-41.8l1.4-1.4c-15.6-7.5-30.3-17.5-43.2-30.4s-22.9-27.6-30.4-43.2
			l-1.4,1.4C-350.6,550.9-365.9,593.2-362,636"/>
	</g>
	<path class="st1" d="M-374.3,656.9c-2.2,0-4.4-0.9-6.1-2.5c-3.4-3.4-3.4-8.9,0-12.3l12.3-12.3c3.4-3.4,8.9-3.4,12.3,0
		c3.4,3.4,3.4,8.9,0,12.3l-12.3,12.3C-369.9,656.1-372.1,656.9-374.3,656.9"/>
</g>
</svg>
