<?xml version="1.0" encoding="utf-8"?>
<!-- Generator: Adobe Illustrator 19.0.0, SVG Export Plug-In . SVG Version: 6.00 Build 0)  -->
<svg version="1.1" id="Layer_1" xmlns="http://www.w3.org/2000/svg" xmlns:xlink="http://www.w3.org/1999/xlink" x="0px" y="0px"
	 viewBox="-237 239 24 24" style="enable-background:new -237 239 24 24;" xml:space="preserve">
<style type="text/css">
	.st0{fill:none;stroke:#333333;stroke-width:1.6;stroke-linecap:round;stroke-linejoin:round;}
</style>
<path class="st0" d="M-222.4,244.6c2,0.4,3.6,2,3.9,3.9 M-222.4,240.6c4.2,0.5,7.5,3.8,7.9,7.9 M-215.5,256.5v3c0,1.1-0.9,2-2,2
	c-0.1,0-0.1,0-0.2,0c-3.1-0.3-6-1.4-8.6-3.1c-2.4-1.5-4.5-3.6-6-6c-1.7-2.6-2.7-5.6-3.1-8.7c-0.1-1.1,0.7-2.1,1.8-2.2
	c0.1,0,0.1,0,0.2,0h3c1,0,1.9,0.7,2,1.7s0.4,1.9,0.7,2.8c0.3,0.7,0.1,1.6-0.4,2.1l-1.3,1.3c1.4,2.5,3.5,4.6,6,6l1.3-1.3
	c0.6-0.5,1.4-0.7,2.1-0.4c0.9,0.3,1.8,0.6,2.8,0.7C-216.2,254.6-215.5,255.4-215.5,256.5z"/>
</svg>
