<?xml version="1.0" encoding="utf-8"?>
<!-- Generator: Adobe Illustrator 19.0.0, SVG Export Plug-In . SVG Version: 6.00 Build 0)  -->
<svg version="1.1" id="Capa_1" xmlns="http://www.w3.org/2000/svg" xmlns:xlink="http://www.w3.org/1999/xlink" x="0px" y="0px"
	 viewBox="-610 372 58 58" style="enable-background:new -610 372 58 58;" xml:space="preserve">
<style type="text/css">
	.st0{fill:#FFAE85;}
	.st1{fill:#FF9A66;}
	.st2{fill:#FFD7C2;}
	.st3{fill:#FFEBE0;}
</style>
<polygon class="st0" points="-561,407 -561,424 -558,424 -558,421 -552,421 -552,389 -610,389 -610,421 -604,421 -604,424 -601,424 
	-601,407 "/>
<polygon class="st1" points="-552,407 -552,389 -610,389 -610,407 -601,407 -561,407 "/>
<rect x="-604" y="407" class="st1" width="46" height="17"/>
<polygon class="st2" points="-561,372 -561,379 -561,389 -601,389 -601,372 "/>
<polyline class="st2" points="-561,407 -561,430 -601,430 -601,407 "/>
<path class="st3" d="M-569,416h-24c-0.6,0-1-0.4-1-1s0.4-1,1-1h24c0.6,0,1,0.4,1,1S-568.4,416-569,416z"/>
<path class="st3" d="M-569,421h-24c-0.6,0-1-0.4-1-1s0.4-1,1-1h24c0.6,0,1,0.4,1,1S-568.4,421-569,421z"/>
<circle class="st3" cx="-561" cy="398" r="4"/>
</svg>
