<?xml version="1.0" encoding="utf-8"?>
<!-- Generator: Adobe Illustrator 19.0.0, SVG Export Plug-In . SVG Version: 6.00 Build 0)  -->
<svg version="1.1" id="Layer_1" xmlns="http://www.w3.org/2000/svg" xmlns:xlink="http://www.w3.org/1999/xlink" x="0px" y="0px"
	 viewBox="0 0 212 176" enable-background="new 0 0 212 176" xml:space="preserve">
<path id="XMLID_21_" fill="#313466" d="M75.5,94.7c0,2.8,1.1,4.1,3.3,4.1c2.1,0,3.5-0.8,4.1-1.1l0.7,1.1c-0.7,0.8-3.4,3.4-7.1,3.4
	c-4.3,0-8.4-3.1-7.4-9.1c0.9-5.8,5.3-8.8,10.6-8.8c3.7,0,6.2,2.5,5.7,5.4C84.7,93.5,79.4,94.7,75.5,94.7L75.5,94.7z M75.5,93.5
	c2.6-0.3,4-2.4,4.5-4.4c0.4-1.8,0.4-3.8-0.9-3.8C77.3,85.3,75.8,90.4,75.5,93.5L75.5,93.5z"/>
<path id="XMLID_18_" fill="#313466" d="M138.3,88.2c0.2-1.2-0.2-2.2-1.2-2.1c-1.4,0-2.6,2-3.6,7.7c-0.7,3.8-0.6,5.8,0.8,6
	c1,0.1,2-0.7,2.5-3.4L138.3,88.2L138.3,88.2z M136.4,99.9c-0.9,1.1-2.2,2.2-5.1,2.2c-2.4,0-5.8-2.2-4.6-8.4c1-5.3,4.6-9,9-9.2
	c1.6-0.1,2.8,0.6,3.4,1.6l0.2-1l6.1-0.5l-2.7,14.2c-0.2,1,0.4,1.3,1.1,1.3c-0.5,0.6-2,2-4.2,2C137.6,102.1,136.7,101.1,136.4,99.9
	L136.4,99.9z"/>
<path id="XMLID_6_" fill="#313466" d="M104.7,100.1c-0.5,0.6-2.2,2-4.4,2c-3.4,0-3.7-2.3-3.3-4.2l2.4-12.8l6.9-0.5l-2.7,14.2
	C103.4,99.8,104,100.1,104.7,100.1L104.7,100.1z"/>
<path id="XMLID_5_" fill="#313466" d="M107.1,79.8c0,1.9-1.5,3.5-3.5,3.5s-3.5-1.5-3.5-3.5c0-1.9,1.5-3.5,3.5-3.5
	S107.1,77.8,107.1,79.8L107.1,79.8z"/>
<path id="XMLID_4_" fill="#313466" d="M113.5,101.3l-6.5,0.5l4.4-23.6l6.5-0.5l-2.6,13.9l5.5-6.6l6.7-0.5l-7.1,7.6l4.9,9.3
	c0.3,0.6,0.8,0.7,1.4,0.6c-0.4,0.8-1.8,2-3.9,2c-2.7,0-3.9-1.5-4.5-2.8l-3.5-7.7L113.5,101.3L113.5,101.3z"/>
<path id="XMLID_3_" fill="#313466" d="M93.8,100.1c-0.5,0.6-2.2,2-4.4,2c-3.4,0-3.7-2.3-3.3-4.2l3.7-19.7l6.9-0.5l-3.9,21.2
	C92.5,99.8,93.1,100.1,93.8,100.1L93.8,100.1z"/>
<path id="XMLID_2_" fill="#313466" d="M158.5,89.3c0.2-1,0.2-2.4-1.1-2.4c-1.1,0-2.2,1.3-2.4,2.4l-2.2,12l-6.7,0.5l3.1-16.7l6.6-0.5
	l-0.4,2.2c1.6-2.3,4-2.4,5.4-2.4c3.4,0,4.7,2.1,4.2,5.3l-1.7,9.2c-0.2,1,0.4,1.3,1.1,1.3c-0.5,0.5-2,2-4.2,2c-3.4,0-3.6-2.3-3.2-4.2
	L158.5,89.3L158.5,89.3z"/>
<path id="XMLID_1_" fill="#313466" d="M64.8,85.1c3.2-0.3,6.5-2.1,6.6-6c0.2-3.7-3.4-5.3-7.1-5.3c-6.4,0-11.4,4.6-11.4,9.1
	c0,3.2,1.3,4.4,2.3,5.2c-0.4,0.2-1.1,0.6-2.2,0.6c-2.9,0-5-1.9-5.1-4.9c-0.1-4.5,5.3-10.2,15.9-11.4c7.7-0.9,14.2,0.9,14.2,6
	c0,4.8-8,8.2-13.5,8.4l-1.5,8.3c-0.8,4.3-4,7.2-9.8,7.3c-2,0-3.3-0.2-4.3-0.7c-1.3-0.6-1.9-1.6-1.9-2.8c0-1.5,1.2-2.8,2.8-2.8
	c1.5,0,2.8,1.3,2.8,2.8c0,0.8-0.3,1.5-0.9,2c1.7-0.3,3.1-1.9,3.5-4.1l3-16.4c0.6-3.1,3-4.1,5.9-4.5l2.5-0.3L64.8,85.1L64.8,85.1z"/>
</svg>
