<?xml version="1.0" encoding="utf-8"?>
<!-- Generator: Adobe Illustrator 19.0.0, SVG Export Plug-In . SVG Version: 6.00 Build 0)  -->
<svg version="1.1" id="Layer_1" xmlns="http://www.w3.org/2000/svg" xmlns:xlink="http://www.w3.org/1999/xlink" x="0px" y="0px"
	 viewBox="0 0 212 176" enable-background="new 0 0 212 176" xml:space="preserve">
<g id="XMLID_11_">
	<path id="XMLID_21_" fill="#FFFFFF" d="M80.9,76.6c-3.4,6.8-7.1,17-7.1,23.8c0,5.8,4.6,8.8,9.9,8.8c4.8,0,11.7-1.8,11.7-8.1
		c0-2.6-2-3.9-5.1-3.9c-2.7-0.1-4.3,0.3-6.5,0.8c0.7-2.6,1.5-5,1.9-6.2c5.5,1,10,0.6,11.5-4.5c1.1-3.8-1.7-5.3-8.3-4.4
		c1.3-3.2,2.5-5.1,2.5-5.1c1.4,0.1,3.8,0,5.3-0.1c3.6-0.2,7.2-1.8,7.2-6.1c0-3.1-3.8-4.5-7-4.5C89.5,67.1,85.2,68.3,80.9,76.6z"/>
	<path id="XMLID_22_" fill="#FFFFFF" d="M60.8,109c5.2,0.1,11.2-1.3,11.8-7.8c0.2-2.2-1.4-4.5-7.9-3.4c2.7-6.1,11-21.6,11.1-26.7
		c0-1.9-0.7-3.5-3.8-3.5c-3.3,0-5.4,1.4-7,4.2c-3.7,5.9-11.5,23.5-11.3,31.2C53.6,107.2,57,108.9,60.8,109z"/>
	<path id="XMLID_27_" fill="#FFFFFF" d="M131.3,83c-1.9,4.8-4.1,12.1-4.1,17.2c0,7.2,5.3,8.9,10,9c4.7,0.1,10-1,14.4-9
		c2.7-4.8,5.2-11.3,6.3-16.8c1-4.8,3.2-15.8-9.2-16C137.9,67.2,134.6,74.3,131.3,83z M144.5,77.3c0.8-1.3,1.8-1.5,2.8-1.5
		c1.6,0,1.7,1.1,1.7,2.1c-0.1,3.3-5,16.6-6.7,19.5c-0.7,1.3-1.6,2.3-3.1,2.3c-1.3,0-1.9-0.9-2-2C137.1,94.8,142.6,79.8,144.5,77.3z"
		/>
	<path id="XMLID_28_" fill="#FFFFFF" d="M101.7,82.8c-1.8,4.3-4.1,11.6-4.1,16.3c0,6.5,4,10.1,10.4,10.1c9.4,0,16-7.5,17.9-16.8
		c0.6-2.9,1.3-8.2-6-8c-3.7,0.2-5.9,1-7.1,4.7c-1.2,3.9,3.2,4,3.2,4c-0.9,4-3.5,6.5-5.8,6.5c-1.4,0-2.8-0.6-2.3-3.7
		c0.6-4.4,4.8-15.3,6.7-18c0.9-1.2,2-2.4,3.8-2.4c2.2,0,2,1.2,1.5,2.6c-1.5,4.2,3,4.4,4.1,4.3c3.9-0.3,6.1-2.8,6.6-7.1
		c0.7-5.9-4.2-8.1-10.5-8.1C109.7,67.3,105.6,73.7,101.7,82.8z"/>
	<path id="XMLID_31_" fill="#FFFF00" d="M60.5,116.1c5,0.1,9.2-0.9,12.4-3.1c2.9,2.1,6.7,3.2,10.8,3.2c5,0,9.4-1.3,12.8-3.6
		c3,2.4,6.9,3.7,11.4,3.7c5.8,0,11.2-2,15.5-5.8c3,3.8,8,5.8,14.2,5.8c11.5,0,17.5-7.1,22-16.4c1.7-3.4,4.8-12.1,5.4-16.7
		c0.7-5.7,1.4-11.1-2.5-16.5c-2.7-3.8-7.4-6.4-14.5-6.4c-5.3,0-10.1,1.4-13.9,4.6c-3.3-3.2-8-4.7-14.3-4.7c-4.9,0-9.1,1.1-12.7,3.3
		c-2.6-2.1-5.7-3.4-10.6-3.4c-4.4,0-10.7,0.2-15.4,4.2c-1.1-2.2-3.3-4-9.4-4c-5.6,0-10.2,2.7-13.2,7.6c-4,6.4-12.5,24.9-12.3,35
		C46.5,110.6,52.2,115.9,60.5,116.1z M61.5,69.6c2.4-4,5.8-6,10.3-6c2.5,0,5,0.4,6.6,2.1c1.3,1.4,1.5,2.6,1.6,4.9
		c4-6.4,10.6-7.2,16.7-7.2c4.7,0,8.6,1.8,10.2,4.4c3.1-2.7,7.6-4.4,13.1-4.4c5.5,0,9.7,1.4,12.2,4.3c0.6,0.6,1,1.1,1.5,2.2
		c3.1-3.7,7.8-6.4,14.5-6.4c11.6,0,14.6,7.6,14.3,14.8c-0.2,4.3-1.6,9.4-2.6,12.5c-4.6,13.6-10.1,22.3-22.7,22.3
		c-5.7,0-11-2.2-13-7.9c-3.8,4.8-9.5,7.9-16.1,7.9c-5,0-8.9-1.7-11.4-4.8c-2.9,3.3-7.9,4.7-12.9,4.7c-4.5,0-8.2-1.6-10.6-4.2
		c-2.7,2.7-7,4.2-12.4,4.1c-7-0.2-10.9-4.3-11-10.2C49.4,93.8,58,75.2,61.5,69.6z"/>
	<path id="XMLID_39_" fill="#FF0000" d="M165,65.8"/>
	<path id="XMLID_40_" d="M139.1,99.8c1.5,0,2.4-1,3.1-2.3c1.7-2.9,6.6-16.2,6.7-19.5c0-1-0.1-2.1-1.7-2.1c-1.1,0-2,0.2-2.8,1.5
		c-1.9,2.4-7.4,17.4-7.3,20.4C137.2,98.8,137.8,99.8,139.1,99.8z"/>
	<path id="XMLID_43_" d="M60.6,112.9c5.4,0.1,9.7-1.3,12.4-4.1c2.4,2.6,6.2,4.2,10.6,4.2c5,0,9.9-1.5,12.9-4.7
		c2.5,3,6.4,4.8,11.4,4.8c6.6,0,12.3-3.1,16.1-7.9c2.1,5.6,7.3,7.9,13,7.9c12.6,0,18.1-8.6,22.7-22.3c1-3.1,2.4-8.2,2.6-12.5
		c0.4-7.2-2.7-14.8-14.3-14.8c-6.7,0-11.3,2.7-14.5,6.4c-0.5-1.1-0.9-1.6-1.5-2.2c-2.6-2.9-6.7-4.3-12.2-4.3
		c-5.4,0-9.9,1.7-13.1,4.4c-1.6-2.6-5.5-4.4-10.2-4.4c-6.1,0-12.8,0.9-16.7,7.2c-0.1-2.3-0.3-3.5-1.6-4.9c-1.6-1.7-4.1-2.1-6.6-2.1
		c-4.5,0-7.9,2-10.3,6c-3.5,5.6-12.1,24.2-11.9,33.2C49.7,108.6,53.6,112.7,60.6,112.9z M71.9,67.5c3.1,0,3.9,1.6,3.8,3.5
		c-0.1,5.1-8.4,20.7-11.1,26.7c6.5-1.1,8.1,1.2,7.9,3.4c-0.6,6.5-6.6,8-11.8,7.8c-3.8-0.1-7.1-1.8-7.2-6.2
		c-0.2-7.6,7.6-25.3,11.3-31.2C66.5,68.9,68.6,67.5,71.9,67.5z M103.9,71.6c0,4.3-3.6,5.9-7.2,6.1c-1.5,0.1-3.9,0.2-5.3,0.1
		c0,0-1.2,1.8-2.5,5.1c6.6-0.9,9.5,0.6,8.3,4.4c-1.5,5.2-6,5.5-11.5,4.5c-0.4,1.2-1.2,3.6-1.9,6.2c2.1-0.5,3.7-0.9,6.5-0.8
		c3.1,0.1,5.1,1.4,5.1,3.9c0,6.3-6.9,8.1-11.7,8.1c-5.3,0-9.9-3-9.9-8.8c0-6.8,3.7-17,7.1-23.8c4.2-8.4,8.5-9.5,15.9-9.5
		C100.1,67.1,103.9,68.5,103.9,71.6z M157.8,83.4c-1.1,5.5-3.6,12-6.3,16.8c-4.4,7.9-9.7,9-14.4,9c-4.7-0.1-9.9-1.8-10-9
		c0-5.2,2.2-12.4,4.1-17.2c3.3-8.7,6.7-15.7,17.3-15.6C161,67.5,158.8,78.6,157.8,83.4z M130.6,75.4c-0.5,4.3-2.7,6.8-6.6,7.1
		c-1.1,0.1-5.6,0-4.1-4.3c0.5-1.5,0.7-2.6-1.5-2.6c-1.8,0-3,1.1-3.8,2.4c-1.9,2.7-6.1,13.5-6.7,18c-0.4,3,0.9,3.7,2.3,3.7
		c2.3,0,4.9-2.4,5.8-6.5c0,0-4.4-0.1-3.2-4c1.2-3.8,3.4-4.6,7.1-4.7c7.3-0.3,6.6,5.1,6,8c-1.9,9.3-8.5,16.8-17.9,16.8
		c-6.4,0-10.4-3.6-10.4-10.1c0-4.7,2.3-12,4.1-16.3c3.9-9.1,8-15.5,18.4-15.5C126.3,67.3,131.3,69.6,130.6,75.4z"/>
</g>
</svg>
