<?xml version="1.0" encoding="utf-8"?>
<!-- Generator: Adobe Illustrator 19.0.0, SVG Export Plug-In . SVG Version: 6.00 Build 0)  -->
<svg version="1.1" id="Layer_1" xmlns="http://www.w3.org/2000/svg" xmlns:xlink="http://www.w3.org/1999/xlink" x="0px" y="0px"
	 viewBox="0 0 200 46" enable-background="new 0 0 200 46" xml:space="preserve">
<g id="XMLID_1_">
	<path id="XMLID_7_" fill="#FF9A66" d="M23.1,0.4C10.3,0.4,0,10.7,0,23.5c0,10,6.5,18.6,15.4,21.8V31.2l14.4,14.4
		c9.5-2.9,16.4-11.7,16.4-22.1C46.2,10.7,35.8,0.4,23.1,0.4z M23.1,31.2c-4.2,0-7.7-3.4-7.7-7.7c0-4.2,3.4-7.7,7.7-7.7
		s7.7,3.4,7.7,7.7C30.8,27.7,27.3,31.2,23.1,31.2z"/>
	<g id="XMLID_2_">
		<g id="XMLID_32_">
			<path id="XMLID_34_" fill="#FF9A66" d="M66.9,15.8c2,0,3.2,0.6,3.9,1.3c0.6,0.6,1.3,1.7,1.3,3.4c0,1-0.2,2.2-1.2,3.1
				c-0.5,0.5-1.3,1-2.1,1.2l4.7,6.3h-4.3l-4.1-6.1v6.1h-3.5V15.8H66.9z M65.1,22.7h0.8c0.6,0,1.5-0.1,2.1-0.7
				c0.3-0.3,0.6-0.7,0.6-1.5c0-0.9-0.4-1.3-0.7-1.5c-0.6-0.4-1.5-0.5-2-0.5h-0.8V22.7z"/>
		</g>
		<g id="XMLID_55_">
			<path id="XMLID_56_" fill="#FF9A66" d="M154.9,15.8c2,0,3.2,0.6,3.9,1.3c0.6,0.6,1.3,1.7,1.3,3.4c0,1-0.2,2.2-1.2,3.1
				c-0.5,0.5-1.3,1-2.1,1.2l4.7,6.3h-4.3l-4.2-6.1v6.1h-3.5V15.8H154.9z M153,22.7h0.9c0.6,0,1.5-0.1,2.1-0.7
				c0.3-0.3,0.6-0.7,0.6-1.5c0-0.9-0.4-1.3-0.7-1.5c-0.6-0.4-1.5-0.5-2-0.5H153V22.7z"/>
		</g>
		<g id="XMLID_33_">
			<path id="XMLID_38_" fill="#FF9A66" d="M87.9,17.9c1.3,1.3,2.2,3.3,2.2,5.6c0,2-0.7,4-2.2,5.5c-1.3,1.3-3.1,2.2-5.5,2.2
				c-2.6,0-4.5-1.1-5.5-2.2c-1.4-1.3-2.2-3.3-2.2-5.5c0-2.1,0.9-4.3,2.2-5.6c1-1,2.7-2.2,5.5-2.2C84.6,15.8,86.5,16.5,87.9,17.9z
				 M79.3,20.2c-0.6,0.6-1.3,1.7-1.3,3.3c0,1.3,0.4,2.4,1.3,3.3c0.9,0.9,1.9,1.2,3,1.2c1.4,0,2.5-0.6,3.1-1.3
				c0.6-0.6,1.2-1.6,1.2-3.3c0-1.5-0.6-2.6-1.2-3.3c-0.7-0.7-1.8-1.3-3.1-1.3C81.2,18.9,80.1,19.4,79.3,20.2z"/>
		</g>
		<g id="XMLID_37_">
			<path id="XMLID_42_" fill="#FF9A66" d="M94.7,15.8l3.9,9.8l3.9-9.8h3.8l-6.5,15.4h-2.4l-6.5-15.4H94.7z"/>
		</g>
		<g id="XMLID_44_">
			<path id="XMLID_49_" fill="#FF9A66" d="M126.7,15.8v12.3h5.7v3.1h-9.2V15.8H126.7z"/>
		</g>
		<g id="XMLID_48_">
			<path id="XMLID_52_" fill="#FF9A66" d="M140.9,15.8c1.3,0,2.8,0.2,4,1.2c1.3,1.2,1.5,2.7,1.5,3.7c0,1.9-0.7,3-1.3,3.6
				c-1.2,1.2-2.8,1.4-3.9,1.4H139v5.4h-3.5V15.8H140.9z M139,22.9h1.3c0.5,0,1.3,0,1.9-0.6c0.3-0.3,0.6-0.9,0.6-1.5
				c0-0.6-0.2-1.1-0.6-1.5c-0.5-0.5-1.3-0.5-2-0.5H139V22.9z"/>
		</g>
		<g id="XMLID_51_">
			<path id="XMLID_60_" fill="#FF9A66" d="M167.8,15.8v15.4h-3.5V15.8H167.8z"/>
		</g>
		<g id="XMLID_59_">
			<path id="XMLID_63_" fill="#FF9A66" d="M171.6,31.2V15.8h3.1l8.3,9.9v-9.9h3.5v15.4h-3.1l-8.3-10v10H171.6z"/>
		</g>
		<polygon id="XMLID_18_" fill="#FF9A66" points="200,15.8 196.4,15.8 192.8,15.8 189.2,15.8 189.2,18.9 192.8,18.9 192.8,31.2 
			196.3,31.2 196.3,18.9 200,18.9 		"/>
		<path id="XMLID_84_" fill="#FF9A66" d="M116.8,31.2h3.8l-6.5-15.4h-2.4l-6.5,15.4h3.8l1.2-3.1h5.3L116.8,31.2z M111.5,25l1.5-3.7
			l1.5,3.7H111.5z"/>
	</g>
</g>
</svg>
