<?xml version="1.0" encoding="utf-8"?>
<!-- Generator: Adobe Illustrator 19.0.0, SVG Export Plug-In . SVG Version: 6.00 Build 0)  -->
<svg version="1.1" id="Layer_1" xmlns="http://www.w3.org/2000/svg" xmlns:xlink="http://www.w3.org/1999/xlink" x="0px" y="0px"
	 viewBox="-5 7 24 24" style="enable-background:new -5 7 24 24;" xml:space="preserve">
<style type="text/css">
	.st0{fill:none;stroke:#33CC33;stroke-width:1.6;stroke-linecap:round;stroke-linejoin:round;}
</style>
<path class="st0" d="M7.9,8.4l8,4c0.7,0.3,1.1,1,1.1,1.8v9.5c0,0.8-0.4,1.5-1.1,1.8l-8,4c-0.6,0.3-1.2,0.3-1.8,0l-8-4
	c-0.7-0.3-1.1-1-1.1-1.8v-9.5c0-0.8,0.4-1.5,1.1-1.8l8-4C6.7,8.2,7.3,8.2,7.9,8.4z"/>
<polyline class="st0" points="-2.7,13.2 7,18 16.7,13.2 "/>
<line class="st0" x1="7" y1="29.8" x2="7" y2="18"/>
<line class="st0" x1="2" y1="10.5" x2="12" y2="15.5"/>
</svg>
