<?xml version="1.0" encoding="utf-8"?>
<!-- Generator: Adobe Illustrator 19.0.0, SVG Export Plug-In . SVG Version: 6.00 Build 0)  -->
<svg version="1.1" id="Capa_1" xmlns="http://www.w3.org/2000/svg" xmlns:xlink="http://www.w3.org/1999/xlink" x="0px" y="0px"
	 viewBox="-383 145 512 512" style="enable-background:new -383 145 512 512;" xml:space="preserve">
<style type="text/css">
	.st0{fill:#333333;}
</style>
<g>
	<g>
		<path class="st0" d="M-20.3,656.8c2.3,0.1,4.5,0.2,6.8,0.2c24.7,0,45.2-8.9,61.4-26.5c0.1-0.1,0.3-0.3,0.4-0.4
			c5.8-6.9,12.3-13.2,19.2-19.8c4.7-4.5,9.6-9.1,14.1-14c21.5-22.5,21.4-50.9-0.2-72.5L21.5,464C11.2,453.3-1,447.6-14,447.6
			c-12.9,0-25.3,5.6-35.9,16.2l-35.4,35.4c-3.1-1.8-6.4-3.4-9.6-4.9c-4-2-7.7-3.9-10.9-5.9c-32.4-20.6-61.8-47.4-90-82
			c-14.2-17.8-23.5-32.8-30.1-48.1c9.2-8.4,17.8-17.1,26.1-25.6c3-3,6.1-6.2,9.2-9.3c22.5-22.5,22.5-50.3,0-72.6l-29.7-29.7
			c-3.5-3.5-6.8-6.9-10.2-10.3c-6.6-6.7-13.4-13.8-20.3-20c-10.3-10.3-22.5-15.6-35.4-15.6c-12.8,0-25.2,5.4-35.9,15.6l-37.3,37.2
			c-13.6,13.6-21.4,30.2-23.1,49.4c-1.9,23.9,2.5,49.3,13.9,80c17.5,47.3,43.9,91.3,82.9,138.3c47.6,56.7,104.7,101.5,169.9,133.1
			C-90.7,640.5-57.4,654.4-20.3,656.8z M-265.7,479.1c-37.2-44.7-62-86.3-78.5-130.8c-10.2-27.4-14-48.7-12.4-69
			c1.2-13.1,6.2-24,15.6-33.4l37.1-37.1c5.7-5.5,11.9-8.3,17.9-8.3c6,0,11.9,2.8,17.5,8.4c6.6,6.2,13,12.7,19.7,19.5
			c3.4,3.5,6.8,7,10.4,10.5l29.7,29.7c12.2,12.2,12.2,24.1,0,36.3c-3.1,3.1-6.3,6.3-9.3,9.4c-9.2,9.3-17.8,18.2-27.4,26.7
			c-0.2,0.2-0.3,0.3-0.5,0.5c-8.5,8.5-7.2,16.7-5.1,22.8c0.1,0.3,0.2,0.5,0.3,0.8c7.7,18.5,18.5,36,35.1,57
			c29.9,36.8,61.4,65.5,96.3,87.6c4.3,2.7,8.8,5,13.2,7.2c4,2,7.7,3.9,10.9,5.9c0.4,0.2,0.7,0.4,1.2,0.6c3.4,1.7,6.6,2.5,10,2.5
			c8.3,0,13.5-5.2,15.2-7l37.3-37.3c5.7-5.7,11.8-8.6,17.7-8.6c7.3,0,13.3,4.6,17.2,8.6l60,60c14.7,14.7,8,27.9-0.3,36.6
			c-4.2,4.5-8.6,8.7-13.2,13.2c-7,6.7-14.3,13.8-20.9,21.6c-11.3,12.2-24.8,17.8-42.3,17.8c-1.7,0-3.5-0.1-5.1-0.2
			c-32.6-2.1-62.9-14.8-85.7-25.6C-166.3,575.5-220.5,533-265.7,479.1z"/>
		<path class="st0" d="M-101.6,238.7c-7-1.2-13.6,3.6-14.8,10.5c-1.2,7,3.6,13.6,10.5,14.8c28.9,4.9,55.1,18.6,76.1,39.5
			c20.9,20.9,34.5,47.2,39.5,76.1c1,6.3,6.5,10.7,12.7,10.7c0.7,0,1.5-0.1,2.2-0.2c7-1.2,11.8-7.9,10.5-14.8
			c-5.8-34.1-21.9-65.3-46.6-90C-36.4,260.5-67.5,244.5-101.6,238.7z"/>
		<path class="st0" d="M115.8,385.9c0.7,0,1.5-0.1,2.2-0.2c7-1.2,11.8-7.9,10.5-14.8c-9.6-56.5-36.2-107.8-77-148.6
			c-40.9-40.8-92.3-67.5-148.7-77c-7-1.2-13.6,3.6-14.8,10.5c-1.2,7,3.6,13.6,10.5,14.8c51.1,8.7,97.7,32.9,134.8,69.9
			s61.2,83.7,69.9,134.8C104.1,381.5,109.6,385.9,115.8,385.9z"/>
	</g>
</g>
</svg>
