<?xml version="1.0" encoding="utf-8"?>
<!-- Generator: Adobe Illustrator 19.0.0, SVG Export Plug-In . SVG Version: 6.00 Build 0)  -->
<svg version="1.1" id="Layer_1" xmlns="http://www.w3.org/2000/svg" xmlns:xlink="http://www.w3.org/1999/xlink" x="0px" y="0px"
	 viewBox="0 0 2460 760" enable-background="new 0 0 2460 760" xml:space="preserve">
<path d="M2187.5,680.9l24.3-17.3l23-18.5l21.8-20.3l20.9-21.2l20-22.7l18.8-23.7l17.6-24.6l16.4-25.5l15.1-26.1l14-26.4l12.4-26.7
	l11.5-27.3l10-27l8.5-27l7-27l5.8-26.7l4.3-26.4l3-25.5l1.2-24.9l-0.6-24l-1.8-23l-3.6-22.2l-5.5-20.6l-7-19.4l-8.8-17.6l-10.6-16.1
	l-12.1-14.3L2378.9,47l-16.1-10.3l-17.9-7.9l-19.7-5.8l-21.8-3.6h-1337l-25.2,1.2l-25.2,3l-24.9,5.5L866.6,37l-24.3,9.7l-24,12.1
	l-23.3,13.7L772,87.6l-22.7,17.3l-21.8,18.5l-21.2,19.7l-20.9,21.2l-19.7,22.1l-19.1,23l-18.2,24.3l-17.3,24.6l-16.1,25.5
	l-15.5,25.8l-14,26.4l-13,26.4l-11.5,26.4l-10.6,26.4l-9.1,26.4l-7.6,26.1l-6.4,25.5l-4.5,25.2l-3,24.6l-1.5,23.6v23l2.1,21.5
	l3.6,20.6l5.8,19.4l7.6,17.9l9.7,16.7l11.5,14.9l13.7,12.7l16.1,11.2l17.9,9.1l20.6,6.7l22.5,3.9l1334,0.3l30.6,0.3l30.3-2.1
	l29.4-4.9l28.5-7.3l27.6-9.4l27-11.2l26.1-13.6L2187.5,680.9L2187.5,680.9z M468.4,593.8l-3.9-8.2l-4.9-6.1l-9.1-16.1l-59.4-62.2
	l8.5-11.5l2.1-105.6v-9.4l-0.9-7.9l-2.7-6.4l-3.3-7l-6.4-7.6l-42.5-47.6l-0.9-0.6l-1.2-0.3l-3.6-1.2h-3.6l-2.4,1.2l-1.5,1.2
	l-1.8,2.7l-3,2.7l-3.9,1.5l-3.6,0.3l-1.2-0.3l-0.6-0.6l-0.6-1.5L317,303l-0.3-0.9v-1.2l-0.6-3l-0.6-1.8l-0.6-2.1l-0.9-0.9l-1.2-0.6
	l-1.2-0.9h-1.5l-2.1,0.6l-3.3,0.9l-2.4,0.9l-3.3,1.5l-1.2-1.2l-0.9-0.9l-1.8-1.2l-0.9-0.9h-0.9l-2.7-0.3l-3,0.3l-1.5,0.9l-0.9,1.2
	l-0.9,3.3l-0.9,3.6l-2.1,5.1l-2.7,0.3l-3.3,0.9l-4.2-4.6l-7-5.8l-4-2.4l-3.3-1.2h-3.6l-31.2,7.9l-3.9,1.8l-5.2,3l-5.1,3.9l-3.3,4.6
	l-2.7,5.2l-2.1,4.9l-0.9,2.1l-0.6,2.1L22.2,173.8l-1.2,3.9l-4.3,25.2l2.7,24.6l11.8,30.6l15.8,24l21.5,24.9l21.2,20l42.8,34l1.5,0.3
	h2.7l1.2-0.6l2.1-2.4l0.6-1.2v-1.5l-0.3-2.4l-1.5-1.8l-2.1-1.5l-19.1-15.8l-15.5-13.3l-12.7-16.4l-7-11.8l99.8,90.4l-14.6,59.5
	l-0.6,4.9l0.6,4.9l1.8,4l2.4,3.3l3.3,3.7l37.3,23.3l1.2,82.5h17.9l0.9,31.8l14.6,1.2l1.8,98.3l-15.2,13l-13,12.1l-2.4,3.6l-1.2,4.3
	l0.3,4.3l1.8,4.2l3,3.6l4.3,2.1l11.8-0.3l26.7-10.9l28.2-13.7l4.2,1.8l15.8,6.7l23,9.7l10.9,1.8l9.4-3l5.8-6.4l0.6-3.6l-1.2-4.2
	l-15.5-15.8l-16.4-14.6l4.9-92.8h11.5l0.9-33.1h21.2l0.6-32.7l62.5,45.5l3.6,0.6l14,5.1l7.9,4.9l6.4,2.7l5.8,1.2L468.4,593.8
	L468.4,593.8z"/>
<path d="M172.1,188l8.8,19.7l5.5,9.7l6.1,8.5l3.3,4.2l7.3,7.9l16.7,14.6l18.5,11.2l20.3,8.2l21.2,4.6l17.9,0.9l3.9,0.3l27-3.6
	l20.9-6.7l19.1-10l17.6-13l14.9-16.1l12.4-17.9l9.1-20l6.7-30.3l1.2-14.9l-1.8-21.5l-5.5-21.2l-8.5-20l-12.1-18.2L388,47.9
	l-17.3-13.3l-19.1-10.6l-23-7.6L307,12.7h-9.4L285.2,13l-21.5,3.6l-20.3,7.3l-19.4,10.6l-17,13.3L192.4,64l-12.1,18.5l-8.5,20
	l-5.1,21.2l-1.8,21.5l1.8,21.5L172.1,188L172.1,188z M212.4,94.9l4.6-12.4l7.3-10.3l10.3-8.2l12.4-4.9l12.7-1.2l12.7,1.5l13.3,6.7
	l9.4,8.8l2.4,3.9l4.6,7.3l3.3,12.4l0.6,7.3l-2.7,15.5l-5.8,10.6l-0.6,1.2l-9.1,9.4l-11.2,6.7l-14.9,3.6l-13-1.2l-12.4-4.6l-5.5-3.3
	l-2.4-2.1l-4.9-4.6l-3.9-5.2l-5.8-11.2l-2.7-13L212.4,94.9L212.4,94.9z"/>
<path fill="#F3CC3E" d="M260.9,661.8l0.3,26.7l10.9,0.3h11.2l0.3-26.1l-11.5-0.6L260.9,661.8z M280.3,587.8l0.3-19.4h-35.5v19.1
	l27,0.3H280.3z M282.5,704.8l-0.6-0.9l-1.5-0.9l-3.3-1.2l-4.6-0.6h-0.3l-3.6,0.3l-3,1.5l-3.3,3l-2.7,3.9l-1.8,2.4l-0.9,0.9l-0.6,0.9
	l-0.6,0.6l-2.4,0.9l-1.8,0.6l-2.1,0.9l-2.1,1.5l-1.5,1.5l-2.1,1.2l-3,1.5l-3.9,1.2l-4.6,2.1l-3.3,3l-1.2,0.9l-0.3,1.5l-0.3,1.2
	l0.3,0.6l0.3,0.6l0.6,0.6l0.6,0.6h0.3l3,0.3l7-1.5l8.5-2.1l4.5-2.7l5.2-3.9l5.1-3l4.3-1.8l5.2-2.1l0.6-0.3l2.7-1.2l2.7-1.8l1.8-1.5
	l2.4-1.8l0.6-1.2l0.9-0.9v-1.2l0.3-1.5l-0.3-0.9L282.5,704.8L282.5,704.8z M314.6,326.6l4.6-7.6l-4.6-1.8l-4.9-1.8l0.3,18.2
	L314.6,326.6z M291,333l-0.6-18.5L287,316l-3.9,1.8l3.9,7.6L291,333L291,333z M348,722.7l-0.6-0.9l-0.9-0.6l-0.9-0.3l-3-0.6
	l-2.4-0.3l-2.1-0.9l-2.4-1.5l-2.4-1.5l-4.6-2.4l-4.2-1.5l-2.4-0.6l-0.9-0.6l-0.6-0.3l-0.9-0.9l-0.9-2.4l-0.6-1.8v-0.9l-0.3-0.6
	l-1.5-1.5l-1.5-0.9l-0.6-0.3l-4.2-0.3h-5.5l-4.2,0.3h-1.5l-0.6,0.3l-1.2,1.5l-0.6,1.8l-0.6,2.4v2.4l0.9,0.9l2.4,3.6l3,2.1l0.6,0.9
	l6.4,2.4l5.8,2.1l20,7.9l2.4,0.3l4.9,0.3l3-0.6l2.7-1.2l0.9-2.4l0.6-1.5l-0.6-1.2L348,722.7L348,722.7z M308.8,690l5.8,0.3h3.6
	l0.9-27.3h-4.6l-5.8-0.3l-13.6-0.3l-0.3,27L308.8,690L308.8,690z"/>
<path fill="#F3CC3E" d="M386.8,367.9l-3-6.1l-3.9-5.8l-38.5-41.9l-26.7,36.4l-5.8,7.9l-10.3,13.9L287,353.6l-14.9-24l-7.3-11.8
	l-1.5-3l-2.4-3.9l-3.9-3l-1.2-0.6h-4.3l-31.9,8.5l-4.5,3.9l-3.3,6.4l-1.5,2.7L177.8,440l-0.6,2.1l-0.3,4.2l0.9,4l1.5,2.7l1.8,2.1
	l1.5,0.9l29.4,16.7v-31.5l-8.2-7.6l16.1-64.3l6.7,2.7l-1.2,182.3h-0.3l47,0.6l14.9,0.3l21.8,0.3h5.8l38.8,0.6l2.7-145l13.3-0.6
	l-1.2,96.8l17.6-19.1l3.3-96.5v-10.9l-0.3-7.3L386.8,367.9L386.8,367.9z M260.3,601.7l0.9,44l10.9,0.3h11.5l0.3-44.3H260.3
	L260.3,601.7z M280,623.9l-0.3,7.3l-7.6-0.3h-7.9v-7.3h7.9L280,623.9z M2405.6,179.2l-1.5-20l-3.3-18.5l-4.8-17.3l-6.1-15.8
	l-7.9-13.9l-9.4-12.1l-11.2-10.3l-12.7-8.2l-14.6-6.4l-16.4-3.6l-18.8-0.6l-1337,0.9l-8.8,0.6l-37.3,2.7L874.5,67l-38.2,17.3
	l-34,22.1l-47,39.4l-39.4,41.2l-50.7,64l-27.9,40.3L604,351.2l-21.8,46.7l-17.6,44l-18.8,63.7l-9.1,44.6l-3.6,27l-0.3,34.3l4.2,22.8
	l6.4,18.8l13,20.9l18.8,18.5l16.1,10l17.9,7l18.5,3h9.4l7.6-0.3l1320.3,0.3l27.3,1.8l25.5-1.8l25.5-3.9l24.6-6.7l24.3-8.5l23.4-10.9
	l22.7-12.4l22.1-14.2l21.5-16.1l20.9-17.6l19.7-18.8l19.1-20l18.2-21.2l17.3-22.4l16.4-23.1l15.5-23.7l14.3-24.3l13.3-24.9
	l12.4-25.2l11.2-25.2l10-25.2l8.8-25.2l7.9-25.2l6.4-24.6l5.2-24.3l3.9-23.6l2.4-23.1l1.2-22.1L2405.6,179.2z M308.8,646.9h5.8
	l4.9,0.3l2.4-45.2h-25.8l-1.2,44.3L308.8,646.9z M301.6,624.5h14.9v7h-7.6l-7.3-0.3V624.5z M314.6,589.3l16.7,0.3l1.2-19.1
	l-17.9-0.6h-5.8l-13.6-0.3l-0.3,19.7H314.6L314.6,589.3z"/>
<path d="M1272.2,461l-0.6-17.9l-4.9-19.4l-10.6-20l-13-14.9l-14.9-11.5l-7.6-4.3l-7.9-3.9l12.1-3l12.1-3.6l28.8-9.4l27.6-13l19.1-13
	l3-2.1l17.6-17.6l13.7-20.6l9.4-21.8l4.3-23.7l-1.8-23l-7-19.4l-10-15.5l-13.3-12.4l-15.8-8.5l-3-1.8l-21.3-6.4l-18.5-1.8h-8.2
	l-178.7-1.2l-127.4-0.6l-85.2-0.6L643.4,593.5h432.2l7.3-0.3h5.8l28.8-1.8l28.8-5.5l25.8-8.5l24-11.8l20.9-14.6l17.6-16.1l14.6-17.9
	l11.8-20.3l7.6-18.5L1272.2,461L1272.2,461z M1069.6,436.7l-6.1,15.2l-10.6,16.1l-14.9,14.6l-18.8,12.4l-19.7,8.2l-20.3,3.9
	l-20.9,0.9l-2.7,0.3l-7,0.3H839.3l86.1-119.8h104.9l16.4,2.4l14,7l8.2,10.9l2.4,13L1069.6,436.7L1069.6,436.7z M1176.6,261.4
	l-6.7,12.7l-13.3,15.5l-18.2,11.2l-18.5,4.6l-19.1,1.2H987.3l62.5-85.8h90.1l15.2,1.2l11.2,5.5l8.8,9.7l3,12.7L1176.6,261.4
	L1176.6,261.4z M1645.5,187.4l0.3-9.4l-0.3-1.2l-3-10.9l-9.1-13l-12.4-8.2l-18.8-6.1l-17.3-0.6l-23,4.2l-14.5,6.7l-14.3,10.6
	l-9.7,12.7l-7,15.8l-0.6,12.4l2.7,12.4l3,5.8l3,4.9l2.4,2.4l9.7,7.6l22.5,7.3l21.8,0.9l23-4.6l14-6.7l11.8-9.4l10.3-13.7l5.4-15.2
	V187.4z M1312.5,529.5l-47.9,77.9h219.3l125.6-342.7h-133.8L1312.5,529.5z M2096.3,440.3l-15.2,12.1l-32.7,21.8l-36.1,19.4l-36.7,14
	l-34.3,7.3l-31.8,0.6l-28.5-4.9l-20.3-10.6l-12.1-12.7l-8.2-17.6l-4-17.9v-18.5l4.3-23l8.8-29.1l12.1-27.3l17-29.1l22.7-30.6
	l27-27.3l29.4-21.5l29.1-14.6l24.6-7l23-0.3l20.9,6.1l14.6,9.7l9.1,11.5l6.1,13.3l2.1,12.4l-1.8,15.5l-5.5,23.7l-3.9,12.7l-4,11.2
	h93.7l188.6-193.5h-197.4l-13.4,25.2l-15.2-8.8l-15.8-7.9l-16.4-6.7l-17-5.5l-17.6-4.3l-17.9-3l-18.2-2.1l-18.8-1.2h-19.1l-19.1,1.2
	l-19.1,2.1l-19.4,3l-19.1,3.9l-19.1,4.9l-18.8,5.8l-18.5,6.7l-18.5,7.6l-17.9,8.2l-17.3,9.1l-17,10l-16.4,10.6l-15.5,11.2
	l-14.6,12.1l-14,12.7l-13.4,13l-11.8,14l-11.2,14.6l-10,15.2l-8.5,15.2l-7.6,16.4l-6.1,16.4l-4.8,17l-3,17.3l-1.5,14.3l-0.3,3.3
	v18.2l0.3,1.8l5.8,34.6l10.3,32.5l14.3,28.2l17.6,24.3l20.6,20.3l23.7,17l25.8,13.3l27.9,9.7l29.7,6.4l31.2,3h32.2l33.1-3.3
	l33.4-6.4l33.7-9.1l33.4-11.8l32.7-14.6l32.2-17.6l30.6-19.7l29.1-22.5l27.9-25.2l-59.1-48.8L2096.3,440.3L2096.3,440.3z"/>
<path fill="none" stroke="#000000" stroke-width="1.008" stroke-miterlimit="2.613" d="M925.5,388.8l-86.1,119.8h109.2l9.7-0.6
	l20.9-0.9l20.3-3.9l19.7-8.2l18.8-12.4l14.9-14.6l10.6-16.1l6.1-15.2l1.8-14.6l-2.4-13l-8.2-10.9l-14-7l-16.4-2.4L925.5,388.8
	L925.5,388.8 M1049.8,220.8l-62.5,85.8h113.4l19.1-1.2l18.5-4.6l18.2-11.2l13.3-15.5l6.7-12.7l1.5-11.5l-3-12.7l-8.8-9.7l-11.2-5.5
	l-15.2-1.2H1049.8 M1212.7,369.1l12.1-3l12.1-3.6l28.8-9.4l27.6-13l22.1-15.2l17.6-17.6l13.7-20.6l9.4-21.8l4.3-23.7l-1.8-23
	l-7-19.4l-10-15.5l-13.3-12.4l-18.8-10.3l-21.3-6.4l-18.5-1.8h-8.2l-391.3-2.4L643.4,593.5h432.2l13-0.3l28.8-1.8l28.8-5.5l25.8-8.5
	l24-11.8l20.9-14.6l17.6-16.1l14.6-17.9l11.8-20.3l7.6-18.5l3.6-17.3l-0.6-17.9l-4.9-19.4l-10.6-20l-13-14.9l-14.9-11.5l-7.6-4.3
	L1212.7,369.1 M1475.7,264.7h133.7l-125.6,342.7h-219.3L1475.7,264.7 M1524.5,223.5l2.4,2.4l9.7,7.6l22.4,7.3l21.8,0.9l23-4.6
	l14-6.7l11.8-9.4l10.3-13.6l5.4-15.2l0.3-14.3l-3.3-12.1l-9.1-13l-12.4-8.2l-18.8-6.1l-17.3-0.6l-23,4.3l-14.5,6.7l-14.3,10.6
	l-9.7,12.7l-7,15.8l-0.6,12.4l2.7,12.4l3,5.8L1524.5,223.5 M2072,339.7l4-11.2l3.9-12.7l5.5-23.7l1.8-15.5l-2.1-12.4l-6.1-13.3
	l-9.1-11.5l-14.6-9.7l-20.9-6.1l-23,0.3l-24.6,7l-29.1,14.6l-29.4,21.5l-27,27.3l-22.7,30.6l-17,29.1l-12.1,27.3l-8.8,29.1l-4.3,23
	v18.5l4,17.9l8.2,17.6l12.1,12.7l20.3,10.6l28.5,4.9l31.8-0.6l34.3-7.3l36.7-14l36.1-19.4l32.7-21.8l15.2-12.1l15.2-12.4l59.1,48.8
	l-27.9,25.2l-29.1,22.4l-30.6,19.7l-32.2,17.6l-32.7,14.6l-33.4,11.8l-33.7,9.1l-33.4,6.4l-33.1,3.3h-32.2l-31.2-3l-29.7-6.4
	l-27.9-9.7l-25.8-13.3l-23.7-17l-20.6-20.3l-17.6-24.3l-14.3-28.2l-10.3-32.5l-6.1-36.4v-18.2l1.8-17.6l3-17.3l4.8-17l6.1-16.4
	l7.6-16.4l8.5-15.2l10-15.2l11.2-14.6l11.8-14l13.3-13l14-12.7l14.6-12.1l15.5-11.2l16.4-10.6l17-10l17.3-9.1l17.9-8.2l18.5-7.6
	l18.5-6.7l18.8-5.8l19.1-4.9l19.1-3.9l19.4-3l19.1-2.1l19.1-1.2h19.1l18.8,1.2l18.2,2.1l17.9,3l17.6,4.3l17,5.5l16.4,6.7l15.8,7.9
	l15.2,8.8l13.3-25.2h197.4l-188.6,193.5L2072,339.7L2072,339.7"/>
</svg>
