<?xml version="1.0" encoding="utf-8"?>
<!-- Generator: Adobe Illustrator 19.0.0, SVG Export Plug-In . SVG Version: 6.00 Build 0)  -->
<svg version="1.1" id="Layer_1" xmlns="http://www.w3.org/2000/svg" xmlns:xlink="http://www.w3.org/1999/xlink" x="0px" y="0px"
	 viewBox="294 5.7 800 167.3" enable-background="new 294 5.7 800 167.3" xml:space="preserve">
<g id="g3">
	<g id="g5">
		<g id="g7">
			<g id="g9">
				<path id="path11" fill="#BF1920" d="M424.6,156.7c-37.2,0-67.3-30.2-67.3-67.4c0-37.2,30.1-67.3,67.3-67.3
					c13.1,0,25.4,3.7,35.7,10.2l-35.7,57.1l67.2-38.8c-7.3-11.6-17.8-21.7-30.4-29.3c-16.1-9.6-38.5-15.6-63.3-15.6
					c-35.3,0-66.4,12.8-83.7,32.1C301.6,52,294,69.9,294,89.3c0,19.5,7.6,37.4,20.4,51.6c17.3,19.3,47.9,32,82.7,32
					c34.8,0,65.3-12.8,82.6-32c0.9-1.1,1.9-2.1,2.7-3.2l-2.6-9.8C467.7,145.3,447.5,156.7,424.6,156.7"/>
				<path id="path13" fill="#BF1920" d="M647.4,168.9L619.2,63.7c-4.5-17-20-29.5-38.4-29.5c-4.8,0-9.4,0.9-13.6,2.4l-60.7,22.1
					h62.4l10.7,39.8c-10.3-8.9-23.8-14.3-38.6-14.3c-29.3,0-53,19.6-53,43.9c0,24.2,23.7,43.9,53,43.9c21.1,0,39.8-10.3,51.3-26.2
					l6.2,23.1H647.4 M561.4,152.6c-13.5,0-24.5-10.9-24.5-24.5c0-13.5,11-24.5,24.5-24.5s24.5,11,24.5,24.5
					C585.9,141.7,574.9,152.6,561.4,152.6z"/>
				<path id="path15" fill="#BF1920" d="M762.4,34.3c-3.7,0-7.2,0.8-10.3,2.3l-39,18.2c-1.9-11.6-12-20.4-24.2-20.4
					c-3.7,0-7.2,0.8-10.4,2.3l-47.6,22.2h33.5v110.2h49V71c0-6.8,5.5-12.3,12.3-12.3c6.7,0,12.3,5.5,12.3,12.3v98h49V58.7
					C786.8,45.2,775.9,34.3,762.4,34.3"/>
				<path id="path17" fill="#BF1920" d="M1069.5,34.3c-3.7,0-7.2,0.8-10.4,2.3l-38.9,18.2c-1.9-11.6-12-20.4-24.2-20.4
					c-3.7,0-7.2,0.8-10.4,2.3l-47.6,22.2h33.5v110.2h49V71c0-6.8,5.5-12.3,12.3-12.3c6.8,0,12.2,5.5,12.2,12.3v98h49V58.7
					C1094,45.2,1083,34.3,1069.5,34.3"/>
				<path id="path19" fill="#BF1920" d="M946,103.6c0,38.3-31,69.4-69.3,69.4c-38.3,0-69.4-31.1-69.4-69.4
					c0-38.3,31.1-69.4,69.4-69.4C915,34.3,946,65.3,946,103.6 M879.5,55.3c-2.2-8.2-10.6-13-18.7-10.8c-8.2,2.2-13,10.6-10.8,18.7
					l23.8,88.7c2.2,8.2,10.6,13,18.7,10.9c8.2-2.2,13-10.6,10.8-18.8L879.5,55.3L879.5,55.3z"/>
			</g>
		</g>
	</g>
</g>
</svg>
