<?xml version="1.0" encoding="utf-8"?>
<!-- Generator: Adobe Illustrator 19.0.0, SVG Export Plug-In . SVG Version: 6.00 Build 0)  -->
<svg version="1.1" id="Layer_1" xmlns="http://www.w3.org/2000/svg" xmlns:xlink="http://www.w3.org/1999/xlink" x="0px" y="0px"
	 viewBox="0 0 372 76" enable-background="new 0 0 372 76" xml:space="preserve">
<path id="XMLID_34_" fill="#FFFFFF" d="M75.7,37.7c0,20.1-16.5,36.2-37,36.2S3.3,57.9,3.3,37.8s15-36.2,35.5-36.2
	S75.7,17.6,75.7,37.7z"/>
<g id="XMLID_8_">
	<g id="XMLID_9_">
		<g id="XMLID_11_">
			<polyline id="XMLID_33_" fill="#ED3024" points="111.1,4.4 158.6,4.4 152.7,19.9 120.8,19.9 116.7,31 146.2,31 141,45 111.5,45 
				106.6,58.3 138.8,58.3 132.9,73.9 85.3,73.9 111.1,4.4 			"/>
			<polygon id="XMLID_32_" fill="#ED3024" points="111.1,4.4 158.6,4.4 152.7,19.9 120.8,19.9 116.7,31 146.2,31 141,45 111.5,45 
				106.6,58.3 138.8,58.3 132.9,73.9 85.3,73.9 			"/>
			<path id="XMLID_31_" fill="#ED3024" d="M153,58.3c-0.3,1.9,0,3.3,0.7,4.4c1,1.4,2.8,2,5,2c2.3,0,6.3-1,7.1-4.9
				c0.8-4.2-2.4-4.4-8.7-6.3c-5.8-1.6-10.7-4.1-8.9-13.3c2.5-13,14.5-16.4,23.4-16.4c8.7,0,17.1,3.3,14.1,15.7h-12.4
				c0.4-1.7,0.4-3.2-0.2-4.2c-0.6-1.1-2.2-1.7-3.8-1.7c-2.8,0-6.4,1.1-7.1,4.6c-0.7,3.5,3.6,4.1,8.2,5.5c7.3,2.2,11.3,4.3,9.4,13.8
				c-2.9,14.8-15,17.5-24.8,17.5c-10.4,0-16.3-4.5-14.6-16.5L153,58.3"/>
			<path id="XMLID_30_" fill="#ED3024" d="M153,58.3c-0.3,1.9,0,3.3,0.7,4.4c1,1.4,2.8,2,5,2c2.3,0,6.3-1,7.1-4.9
				c0.8-4.2-2.4-4.4-8.7-6.3c-5.8-1.6-10.7-4.1-8.9-13.3c2.5-13,14.5-16.4,23.4-16.4c8.7,0,17.1,3.3,14.1,15.7h-12.4
				c0.4-1.7,0.4-3.2-0.2-4.2c-0.6-1.1-2.2-1.7-3.8-1.7c-2.8,0-6.4,1.1-7.1,4.6c-0.7,3.5,3.6,4.1,8.2,5.5c7.3,2.2,11.3,4.3,9.4,13.8
				c-2.9,14.8-15,17.5-24.8,17.5c-10.4,0-16.3-4.5-14.6-16.5L153,58.3z"/>
			<path id="XMLID_29_" fill="#ED3024" d="M193.9,58.3c-0.3,1.9,0,3.3,0.7,4.4c1,1.4,2.8,2,5,2c2.3,0,6.3-1,7.1-4.9
				c0.8-4.2-2.4-4.4-8.7-6.3c-5.8-1.6-10.7-4.1-8.9-13.3c2.5-13,14.5-16.4,23.4-16.4c8.7,0,17.1,3.3,14.1,15.7h-12.4
				c0.4-1.7,0.4-3.2-0.2-4.2c-0.6-1.1-2.2-1.7-3.8-1.7c-2.8,0-6.4,1.1-7.1,4.6c-0.7,3.5,3.6,4.1,8.2,5.5c7.3,2.2,11.3,4.3,9.4,13.8
				c-2.9,14.8-15,17.5-24.8,17.5c-10.4,0-16.3-4.5-14.6-16.5L193.9,58.3"/>
			<path id="XMLID_28_" fill="#ED3024" d="M193.9,58.3c-0.3,1.9,0,3.3,0.7,4.4c1,1.4,2.8,2,5,2c2.3,0,6.3-1,7.1-4.9
				c0.8-4.2-2.4-4.4-8.7-6.3c-5.8-1.6-10.7-4.1-8.9-13.3c2.5-13,14.5-16.4,23.4-16.4c8.7,0,17.1,3.3,14.1,15.7h-12.4
				c0.4-1.7,0.4-3.2-0.2-4.2c-0.6-1.1-2.2-1.7-3.8-1.7c-2.8,0-6.4,1.1-7.1,4.6c-0.7,3.5,3.6,4.1,8.2,5.5c7.3,2.2,11.3,4.3,9.4,13.8
				c-2.9,14.8-15,17.5-24.8,17.5c-10.4,0-16.3-4.5-14.6-16.5L193.9,58.3z"/>
			<path id="XMLID_25_" fill="#ED3024" d="M238.1,52.8c-0.3,0.9-0.5,1.7-0.8,3.2c-0.6,5,1.4,7.7,5.9,7.7c4.7,0,7.3-2.2,9-5.4h13.3
				c-5.6,11.4-14.9,16-25,16c-11.6,0-18.7-6.7-15.9-20.9c3.4-17,15.6-29.8,30.7-29.8c10.8,0,17.6,7.1,14.9,20.9
				c-0.6,2.9-1.3,5.5-2.1,8.2H238.1z M257.2,44.1c1.5-5.4,0.2-9.8-4.4-9.8c-5.6,0-9.3,3.8-12,9.8H257.2"/>
			<path id="XMLID_22_" fill="#ED3024" d="M238.1,52.8c-0.3,0.9-0.5,1.7-0.8,3.2c-0.6,5,1.4,7.7,5.9,7.7c4.7,0,7.3-2.2,9-5.4h13.3
				c-5.6,11.4-14.9,16-25,16c-11.6,0-18.7-6.7-15.9-20.9c3.4-17,15.6-29.8,30.7-29.8c10.8,0,17.6,7.1,14.9,20.9
				c-0.6,2.9-1.3,5.5-2.1,8.2H238.1z M257.2,44.1c1.5-5.4,0.2-9.8-4.4-9.8c-5.6,0-9.3,3.8-12,9.8H257.2z"/>
			<polyline id="XMLID_21_" fill="#ED3024" points="290,4.3 304.5,4.3 278.3,73.9 263.8,73.9 290,4.3 			"/>
			<polygon id="XMLID_20_" fill="#ED3024" points="290,4.3 304.5,4.3 278.3,73.9 263.8,73.9 			"/>
			<path id="XMLID_19_" fill="#ED3024" d="M319,27.7h8.4l-3.8,9.8h-8.5l-6.7,17.4c-0.8,2-1.5,3.9-1.8,5.5c-0.4,2.2,1.4,2.4,3.7,2.4
				c1.4,0,2.8-0.2,4.2-0.3l-4.3,11.3c-2.7,0.2-5.3,0.5-7.9,0.5c-6.2,0-12.4-1-11-8c0.6-3.2,1.9-6.8,4-12.2l6.5-16.7h-6.7l3.8-9.8
				h6.7l5.3-13.9h13.3L319,27.7"/>
			<path id="XMLID_18_" fill="#ED3024" d="M319,27.7h8.4l-3.8,9.8h-8.5l-6.7,17.4c-0.8,2-1.5,3.9-1.8,5.5c-0.4,2.2,1.4,2.4,3.7,2.4
				c1.4,0,2.8-0.2,4.2-0.3l-4.3,11.3c-2.7,0.2-5.3,0.5-7.9,0.5c-6.2,0-12.4-1-11-8c0.6-3.2,1.9-6.8,4-12.2l6.5-16.7h-6.7l3.8-9.8
				h6.7l5.3-13.9h13.3L319,27.7z"/>
			<path id="XMLID_15_" fill="#ED3024" d="M332.4,52.8c-0.3,0.8-0.5,1.6-0.8,3.1c-0.6,5,1.4,7.7,5.9,7.7c4.7,0,7.3-2,9-5.3h13.3
				c-5.6,11.5-14.9,15.9-25,15.9c-11.6,0-18.7-6.7-15.9-20.8c3.3-17,15.6-29.8,30.7-29.8c10.8,0,17.6,7.1,14.9,20.9
				c-0.6,2.9-1.3,5.5-2.1,8.3H332.4z M351.5,43.9c1.5-5.3,0.2-9.8-4.4-9.8c-5.6,0-9.3,3.8-12,9.8H351.5"/>
			<path id="XMLID_12_" fill="#ED3024" d="M332.4,52.8c-0.3,0.8-0.5,1.6-0.8,3.1c-0.6,5,1.4,7.7,5.9,7.7c4.7,0,7.3-2,9-5.3h13.3
				c-5.6,11.5-14.9,15.9-25,15.9c-11.6,0-18.7-6.7-15.9-20.8c3.3-17,15.6-29.8,30.7-29.8c10.8,0,17.6,7.1,14.9,20.9
				c-0.6,2.9-1.3,5.5-2.1,8.3H332.4z M351.5,43.9c1.5-5.3,0.2-9.8-4.4-9.8c-5.6,0-9.3,3.8-12,9.8H351.5z"/>
		</g>
		<path id="XMLID_10_" fill="#ED3024" d="M11.3,14.4c-0.2,0.2-0.2,0.4,0,0.4c0.2,0,27.4,0,27.5,0c0.2,0,0.4,0,0.1,0.2
			c-0.4,0.2-8.8,4.3-15.9,11.9c-7.9,8.3-10.8,12.8-16.3,25.9c-0.1,0.4-0.2,0.7,0.2,1.4C7.2,55,8,56.4,8.1,56.6
			c0.1,0.2,0.4,0.6,0.6,0.2c0.2-0.5,3.3-8.4,9.1-16.6c5.8-8.2,12.2-12.7,12.9-13.2c0.7-0.5,0.8-0.4,1.2-0.4c0.4,0,25.3-0.1,25.7-0.1
			c0.4,0,0.6,0.1,0.2,0.2c-0.6,0.2-12.9,3.3-26,15.2c-10.1,9.2-15.4,19.8-16.3,21.9c-0.3,0.6-0.5,1-0.1,1.4c0.4,0.4,1.2,1,1.4,1.2
			c0.2,0.2,0.5,0.6,0.8,0.1C18,66,22.4,57.3,31,48.7c5.5-5.4,11.7-9.7,14.6-10.8c0.4-0.2,0.8-0.3,1.4-0.3c0.7,0,21.7,0,22.2,0
			c0.4,0,0.4,0.1,0.2,0.3c-0.3,0.1-18,4-30.2,14.4c-8.9,7.3-13,13.1-15,16.5c-0.5,0.9-1,1.6-0.4,1.9c0.6,0.3,3.8,1.5,3.8,1.5l0,0
			c3.7,1.3,7.7,1.9,11.8,1.9c20.1,0,36.4-16.3,36.4-36.4c0-20.1-16.3-36.4-36.4-36.4C28,1.2,18,6.3,11.3,14.4L11.3,14.4"/>
	</g>
</g>
<path id="XMLID_5_" fill="#ED3024" d="M366.1,17.4c-1.7,0-3.1,1.3-3.1,3.1c0,1.8,1.4,3.1,3.1,3.1c1.7,0,3.1-1.3,3.1-3.1
	C369.2,18.8,367.7,17.4,366.1,17.4z M366.1,23.1c-1.4,0-2.5-1.1-2.5-2.6c0-1.5,1.1-2.6,2.5-2.6c1.4,0,2.5,1.1,2.5,2.6
	C368.5,22,367.4,23.1,366.1,23.1z"/>
<path id="XMLID_2_" fill="#ED3024" d="M367.5,19.8c0-0.7-0.4-1-1.3-1h-1.4v3.6h0.5v-1.5h0.6l0.9,1.5h0.6l-1-1.6
	C367.1,20.7,367.5,20.4,367.5,19.8z M365.4,20.3v-1.1h0.7c0.4,0,0.8,0.1,0.8,0.5c0,0.5-0.4,0.6-0.9,0.6H365.4z"/>
</svg>
