<?xml version="1.0" encoding="utf-8"?>
<!-- Generator: Adobe Illustrator 19.0.0, SVG Export Plug-In . SVG Version: 6.00 Build 0)  -->
<svg version="1.1" id="Layer_1" xmlns="http://www.w3.org/2000/svg" xmlns:xlink="http://www.w3.org/1999/xlink" x="0px" y="0px"
	 viewBox="0 0 200 60" enable-background="new 0 0 200 60" xml:space="preserve">
<g>
	<path fill="#E30C19" d="M50.2,23.6l-8.5,20.1c-1.5,3.4-4,6.7-7.2,8.6c-2.8,1.7-6.2,2.3-9.5,2.3c-6.6,0-12.5-2.6-16.6-7.8l6.4-7
		c1.2,2.5,2.6,4.4,5.7,4.4c2.9,0,4-2.1,5-4.5l2.2-5.3c-2.5,1.6-5.2,2.9-8.3,2.9c-7.5,0-13.5-6.3-13.5-13.7c0-4.8,2.6-9.3,6.2-12.4
		c4.1-3.5,9.3-5.2,14.6-5.2c7.3,0,13.4,2.4,16.8,9.2L37,20.8c-1-2.6-2.8-4.6-5.8-4.6c-3.6,0-6.9,3.3-6.9,6.9c0,2.3,1.9,3.7,4.1,3.7
		c1.1,0,2.5-0.4,3-1.5L32,24l0.2-0.4L50.2,23.6L50.2,23.6z"/>
	<path fill="#E30C19" d="M87.6,54.2l18.7-43.9l17.9,0l-7.1,16.8c4.5-2.6,9.6-4.1,14.8-4.1c3.2,0,8.1,1.4,8.1,5.5
		c0,1.2-0.5,2.4-0.9,3.5l-5,11.8c-0.1,0.3-0.3,0.6-0.3,1c0,0.5,0.8,0.6,1.2,0.6c0.3,0,0.6,0,0.9,0l-0.2,4.6
		c-3.1,3.3-7.3,4.9-11.8,4.9c-3.6,0-9.8-0.4-9.8-5.4c0-0.8,0.2-1.5,0.5-2.3l0.9-2.1l3.5-8.5c0.2-0.5,0.4-1.1,0.4-1.8
		c0-1.2-1.5-1.5-2.4-1.5c-2.1,0-3.3,1.6-4.1,3.4l-7.4,17.5L87.6,54.2L87.6,54.2z"/>
	<path fill="#E30C19" d="M92.3,36.6c0-10.6-11.1-13.7-19.8-13.7c-7.5,0-15.1,2.1-20.6,7.4c-3,2.9-4.8,6.9-4.8,11.1
		c0,3.6,1.8,6.5,4.6,8.7c4.2,3.5,10,4.6,15.4,4.6c7.2,0,11.9-1.5,18.1-5.3l-2.8-7.8c-2.7,2.3-5.3,3.6-9,3.6c-3,0-6.6-1.8-6.6-5.2h25
		C92.1,38.9,92.3,37.7,92.3,36.6z M78.3,34.1h-10c0.8-2.6,3.5-4.2,6.2-4.2c1.9,0,3.8,1.2,3.8,3.3C78.3,33.5,78.3,33.8,78.3,34.1z"/>
	<path fill="#E30C19" d="M184.4,44.7c0-0.2,0.1-0.4,0.2-0.6l8.4-19.5h-17.7l-1.3,2.6c-3.8-2.3-8.1-3.5-12.5-3.5
		c-5.3,0-10.5,1.7-14.7,5c-4.1,3.3-7.2,8.1-7.2,13.4c0,7.6,7.2,12.6,14.3,12.6c3.9,0,7.9-1.5,10.8-4c2.2,2.8,5.9,3.7,9.4,3.7
		c5,0,8.6-1.4,12.3-4.7l0.3-4.5c-0.5,0.1-1,0.2-1.5,0.2C184.8,45.5,184.4,45.2,184.4,44.7z M167.3,42.9c-1.1,0.5-2.2,0.9-3.4,0.9
		c-2.5,0-4.4-2.1-4.4-4.6c0-3.7,3.5-6.6,7.1-6.6c1.8,0,3.3,0.5,4.1,2.2L167.3,42.9z"/>
</g>
</svg>
