<?xml version="1.0" encoding="utf-8"?>
<!-- Generator: Adobe Illustrator 19.0.0, SVG Export Plug-In . SVG Version: 6.00 Build 0)  -->
<svg version="1.1" id="Layer_1" xmlns="http://www.w3.org/2000/svg" xmlns:xlink="http://www.w3.org/1999/xlink" x="0px" y="0px"
	 viewBox="0 0 320 140" enable-background="new 0 0 320 140" xml:space="preserve">
<g>
	<path fill="#009981" d="M278.5,63.8l25.6,26l-29.8,37.4H24.6l47.7-63.2"/>
	<g>
		<path fill="#D83A3D" d="M251.9,60.6h44.5L266.5,98H16.9l62.2-82.4l172.7,0V60.6z"/>
		<path fill="#FFFFFF" d="M114.4,85.4c-8.6,2.2-16.9,3.9-24.5,3.9C71.6,89.3,59,79.8,66.9,59c8.4-22,28.4-33.2,48.3-33.2
			c7.4,0,13.7,1.6,18.7,5.5c-2.3,2.8-4.3,5.9-5.8,8.9l-1.2,0c-1.7-5.9-6.7-9.1-13.5-9.1c-14.4,0-26.6,13.3-32.2,28.2
			C75.3,74.7,79.4,84,92.5,84c4.3,0,7.9-1.2,10.4-2.5l5.6-15.4l-6.1,0l2.6-5.5c3.3,0.1,16.5,0,18.7,0.1L114.4,85.4z"/>
		<path fill="#FFFFFF" d="M138.7,88.2c-2.1-0.2-4.1-0.5-6.3-0.5c-2.2,0-4.4,0.3-6.6,0.4l23.1-60.7l21.2,0.1c12,0,16.6,5,12.7,15
			c-6,15.8-18.5,19.1-34,19L138.7,88.2z M150.7,56.7c1.9-0.1,3.9-0.2,5.9-0.6c6.2-1.6,10.2-6.6,12.3-12c2.7-7.1,0.9-11.8-3.5-11.8
			l-5.3,0L150.7,56.7z"/>
		<path fill="#FFFFFF" d="M199.4,88.2c-1.1-0.2-2.2-0.4-3.5-0.5c-1.3,0-2.6,0.3-3.9,0.4c0.6-20.6,0.5-40.7,0-60.8
			c2.4,0.2,4.9,0.5,7.4,0.5c2.5,0,2.8-0.2,5.4-0.4c-1.4,14.7-0.9,26.2-1.3,41c11.4-14.5,22.4-26.3,32.7-41c1.2,0.2,4.9,0.3,6.2,0.3
			c1.3,0,2.7-0.1,4.1-0.3C230.6,47.6,214.6,67.4,199.4,88.2L199.4,88.2z"/>
		<polygon fill="#D83A3D" points="259.7,21 254.3,16.2 254.3,58.2 296.4,58.2 291,52.8 259.6,52.8 		"/>
		<polygon fill="#009981" points="294.2,50.4 262.2,50.4 262.2,18.4 		"/>
	</g>
	<g>
		<path fill="#FFFFFF" d="M112.1,101.1c1.7-0.3,4-0.5,6.2-0.5c3.3,0,5.3,0.6,6.3,1.9c0.8,1,0.9,2.6,0.2,4.3c-1.2,3-4,5-6.9,5.8
			l0,0.1c1.6,0.6,2.1,2.2,1.7,4.6c-0.5,3.2-0.8,5.4-0.6,6.3h-3.2c-0.1-0.6,0.1-2.6,0.6-5.4c0.5-3.1-0.3-4.3-3.1-4.4h-3l-3.9,9.9
			h-3.1L112.1,101.1z M111,111.5h3.2c3.3,0,6.2-1.7,7.2-4.3c1.2-2.9-0.6-4.2-3.9-4.3c-1.5,0-2.6,0.1-3.2,0.3L111,111.5z"/>
		<path fill="#FFFFFF" d="M142.5,115.3c-2.4,6.1-7.9,8.7-12.1,8.7c-4.7,0-7.1-3.2-5-8.4c2.2-5.5,7.3-8.7,12.1-8.7
			C142.5,106.9,144.5,110.3,142.5,115.3z M128.7,115.5c-1.4,3.6-0.3,6.3,2.8,6.3c3,0,6.4-2.7,7.8-6.4c1.1-2.8,1-6.3-2.7-6.3
			C132.8,109.1,129.9,112.4,128.7,115.5z"/>
		<path fill="#FFFFFF" d="M149,111.7c0.7-1.7,1.2-3.1,1.6-4.4h2.8l-0.9,2.6h0.1c1.6-1.6,3.8-3,6.7-3c2.4,0,3.6,1.4,3.6,3.3h0.1
			c0.9-0.9,1.9-1.6,2.8-2.1c1.3-0.7,2.7-1.2,4.3-1.2c2.3,0,5.2,1.4,2.9,7.1l-3.8,9.6H166l3.7-9.3c1.3-3.1,0.8-5-1.8-5
			c-1.8,0-3.7,1.3-4.8,2.7c-0.3,0.4-0.6,0.9-0.8,1.5l-4,10.1h-3.1l3.9-9.8c1-2.6,0.6-4.5-1.8-4.5c-2,0-4,1.5-5.1,3
			c-0.4,0.4-0.6,0.9-0.8,1.5l-3.9,9.9h-3.1L149,111.7z"/>
		<path fill="#FFFFFF" d="M184.8,123.6l0.6-2.1h-0.1c-1.5,1.3-3.8,2.4-6.3,2.4c-3.5,0-4.4-2.3-3.5-4.7c1.6-4,6.2-6.1,12.9-6.1
			l0.1-0.3c0.5-1.4,1.1-3.8-2.4-3.8c-1.6,0-3.5,0.5-5,1.2l0.1-2c1.8-0.9,4.1-1.5,6.3-1.5c5.3,0,5.3,3.4,4,6.7l-2.4,6.1
			c-0.6,1.4-1,2.8-1.3,3.9H184.8z M187.7,115.3c-3.4-0.1-7.6,0.5-8.8,3.7c-0.8,1.9,0.2,2.8,1.9,2.8c2.3,0,4.2-1.4,5.3-2.7
			c0.2-0.3,0.4-0.6,0.6-0.9L187.7,115.3z"/>
		<path fill="#FFFFFF" d="M198.3,111.7c0.7-1.7,1.2-3.1,1.6-4.4h2.8l-0.9,2.7h0.1c1.5-1.6,4.1-3.1,7-3.1c2.4,0,5.6,1.4,3.4,7
			l-3.9,9.8h-3.2l3.8-9.4c1.1-2.6,0.9-4.8-2.1-4.8c-2.1,0-4.3,1.4-5.5,3c-0.3,0.4-0.6,0.9-0.8,1.4l-3.9,9.8h-3.2L198.3,111.7z"/>
		<path fill="#FFFFFF" d="M214.5,123.6l6.5-16.4h3.2l-6.5,16.4H214.5z M226.4,102.7c-0.4,1-1.5,1.8-2.7,1.8c-1.1,0-1.6-0.8-1.2-1.8
			c0.4-1,1.6-1.9,2.7-1.9C226.3,100.8,226.8,101.6,226.4,102.7z"/>
		<path fill="#FFFFFF" d="M233.5,123.6l0.6-2.1H234c-1.5,1.3-3.8,2.4-6.3,2.4c-3.5,0-4.4-2.3-3.5-4.7c1.6-4,6.2-6.1,12.9-6.1
			l0.1-0.3c0.5-1.4,1.1-3.8-2.4-3.8c-1.6,0-3.5,0.5-5,1.2l0.1-2c1.8-0.9,4.1-1.5,6.3-1.5c5.3,0,5.3,3.4,4,6.7l-2.4,6.1
			c-0.6,1.4-1,2.8-1.3,3.9H233.5z M236.4,115.3c-3.4-0.1-7.6,0.5-8.8,3.7c-0.8,1.9,0.2,2.8,1.9,2.8c2.3,0,4.2-1.4,5.3-2.7
			c0.2-0.3,0.4-0.6,0.6-0.9L236.4,115.3z"/>
	</g>
</g>
</svg>
