<?xml version="1.0" encoding="utf-8"?>
<!-- Generator: Adobe Illustrator 19.1.0, SVG Export Plug-In . SVG Version: 6.00 Build 0)  -->
<svg version="1.1" id="Ebene_1" xmlns="http://www.w3.org/2000/svg" xmlns:xlink="http://www.w3.org/1999/xlink" x="0px" y="0px"
	 viewBox="0 0 350 86" style="enable-background:new 0 0 350 86;" xml:space="preserve">
<style type="text/css">
	.st0{clip-path:url(#SVGID_2_);fill-rule:evenodd;clip-rule:evenodd;fill:#E30613;}
	.st1{clip-path:url(#SVGID_2_);fill-rule:evenodd;clip-rule:evenodd;fill:#FFFFFF;}
</style>
<g>
	<defs>
		<rect id="SVGID_1_" x="0" y="0" width="350" height="86.1"/>
	</defs>
	<clipPath id="SVGID_2_">
		<use xlink:href="#SVGID_1_"  style="overflow:visible;"/>
	</clipPath>
	<path class="st0" d="M39.9,81.8h270.3c20.9,0,35.5-17.8,35.5-38.8c0-20.9-14.6-38.6-35.5-38.6H39.9C18.9,4.3,4.3,22.1,4.3,43
		C4.3,63.9,18.9,81.8,39.9,81.8"/>
	<path class="st1" d="M39.9,81.8h270.3c20.9,0,35.5-17.8,35.5-38.8c0-20.9-14.6-38.6-35.5-38.6H39.9C18.9,4.3,4.4,22.1,4.4,43
		C4.4,63.9,18.9,81.8,39.9,81.8 M310.1,86.1H39.9C16.5,86.1,0,66.3,0,43S16.5,0,39.9,0h270.3C333.5,0,350,19.6,350,43
		S333.5,86.1,310.1,86.1"/>
	<path class="st1" d="M42.8,50.7c0-8.3,5.9-13.6,13.3-13.6c7.3,0,12.3,5.5,12.3,12.3c0,7.4-5.8,12.7-12.7,12.7c-0.8,0-1.4,0-2-0.2
		c2.1,0.9,4.4,1.2,6.5,1.2c9.2,0,17.6-6.7,17.6-17.6c0-9.2-6.5-17.6-17.4-17.6c-2.9,0-5.6,0.6-8,2c3.8-3,8.6-4.4,13.5-4.4
		c13.6,0,22.3,10.5,22.3,22.1c0,14.1-11.2,22.7-23.3,22.7C52.9,70.4,42.8,62.2,42.8,50.7"/>
	<path class="st1" d="M28.4,41.5c0-15.3,11.5-26.8,26.8-26.8c6.4,0,12,2.1,16.5,5.8c-2.9-1.1-5.9-1.7-9.1-1.7
		C47,18.7,35.5,30.4,35.5,46c0,8.2,3.2,14.7,8.5,19.7C34.7,61.6,28.4,52.7,28.4,41.5"/>
	<path class="st1" d="M202.3,39.2c-2.9,0-6.1,4.2-6.5,5.6c4.2,0.2,8.6-1.7,8.6-3.8C204.4,40.1,203.6,39.2,202.3,39.2 M261.8,26.5
		c-4.4,0-10,7.9-11.4,12.3c4.7-0.9,12.3-7.7,12.3-11.2C262.7,26.8,262.4,26.5,261.8,26.5 M228.3,58.9c-1.1,2.6-4.1,5.3-7.3,5.3
		c-0.9,0-1.5-0.8-1.5-1.7c0-2,0.6-4.5,0.6-7.3c0-1.4-0.8-2.3-2.1-2.3c-6.5-0.1-12.9,9.5-22.3,9.5c-5.9,0-10.6-5.9-10.6-10.2
		c0-5.9,7.9-18.9,18.3-18.9c3.5,0,8.5,2.7,8.5,7.1c0,5.9-8.8,9.1-18,8.9c0,0-0.6,1.1-0.6,2.4c0,2.1,1.7,4.1,4.1,4.1
		c6.7,0,13.8-10.2,21.5-10.2c3.3,0,5.3,1.5,6.1,3.5c1.1-2.7,1.8-8,2.4-11.2c0.3-2,1.5-2.9,2.6-2.9c2.3,0,5.2,4.2,12.4,4.7
		c4.4-12.6,13.9-19.7,20.2-19.7c3.5,0,7,2.9,7,6.1c0,7-10.3,16.5-21.2,19.1c0,0-0.8,2.6-0.8,4.9c0,1.5,1.1,2.9,3,2.9
		c4.5,0,14.2-9.1,18.6-9.1c2.6,0,4.9,2.6,4.9,4.1c0,1.7-1.5,8.6-2.1,10.9c-0.6,2.7-2.9,4.4-6.1,4.4c-1.1,0-1.7-0.8-1.7-1.7
		c0-3.8,1.7-10.5,1.7-10.5c-5.3,2.9-13.3,9.4-18.3,9.4c-3.9,0-7.9-4.1-7.9-7.4c0-4.4,1.1-7.3,1.1-7.3c-2,0.2-5.6-0.2-7.7-2
		C232.3,47.5,230.7,53,228.3,58.9"/>
	<path class="st1" d="M278.9,36c0,3.2-2.1,5.2-4.9,5.2c-2.4,0-4.1-1.7-4.1-4.5c0-2.7,1.8-5.2,4.7-5.2
		C277.7,31.5,278.9,33.3,278.9,36"/>
	<path class="st1" d="M142.8,31.5c16.2,0,29.5-4.5,29.5-8.2c0-0.8-0.9-1.2-2.9-1.2C160.5,22.1,150,27.1,142.8,31.5 M121.1,52.8
		c8.6-4.5,29.4-14.7,46.2-14.7c11.2,0,15.9,5.5,15.9,13.3c0,3.3-2,8-3.3,9.8c-2.3,2.3-6.5,3.5-8,3.5c-0.9,0-1.8-0.3-1.8-1.1
		c0-1.8,3.6-5.9,3.6-11.7c0-4.4-3.2-6.1-8.9-6.1c-12.9,0-32.3,6.8-45.5,14.5c-2.7,1.8-7,3.6-10.6,3.6c-2.3,0-3-1.1-3-1.8
		c0-0.9,0.5-1.7,0.6-2c3.2-6.2,11.7-17,18.5-23.5c-2.4-0.1-6.5-0.9-8.9-1.5c-2.7-0.8-5.2-3.9-5.2-5.8c0-0.9,0.3-1.4,1.5-1.4
		c1.4,0,13.3,2.4,19.5,2.6c10.6-8.3,26.5-15.3,39.1-15.3c8,0,11.5,4.2,11.5,7.1c0,11.1-27.7,15.5-47.1,15.2
		C128.1,43.3,121.1,52.8,121.1,52.8"/>
	<path class="st1" d="M290.8,44.2c-0.9,3.6-1.7,9.1-2.3,11.4c-0.6,2.7-3.2,4.4-6.2,4.4c-1.1,0-1.7-0.8-1.7-1.7c0-3.6,1.4-9.9,2-12.9
		c0,0-3.6,0.6-4.9,0.6c-0.8,0-1.2-0.5-1.2-1.2c0-2.1,3.8-4.1,7.4-4.7c1.2-4.8,3.9-14.2,5.6-14.2c2.4,0,4.7,2.3,4.7,4.5
		c0,1.4-0.9,4.2-2,7.7c0,0,7.9-1.4,14.2-1.4c3.9,0,8.6,2.4,8.6,4.5c0,1.8-1.4,4.1-3.2,6.5h5.2c0.5,0,1.1,0.3,1.1,1.1
		c0,1.5-2.9,2.7-6.1,3c-0.9,0-2.4,0.2-4.1,0.2c-2,2.1-3.9,3.9-4.4,5c0,0,5.6,1.2,14.9,1.2c1.5,0,2.3,0.5,2.3,1.7
		c0,2.7-4.2,4.9-7.1,4.9c-7.9,0-17.4-2.9-17.4-6.5c0-1.7,1.5-4.1,3-6.4c-2.3-0.2-4.2-0.2-4.9-0.2c-0.5,0-0.9-0.3-0.9-1.1
		c0-1.4,2.7-2.6,6.1-2.9c0.8-0.2,1.8-0.2,3-0.2c1.4-2,2.6-3.5,2.9-4.4C305.5,43.3,296.7,43.1,290.8,44.2"/>
</g>
</svg>
