<?xml version="1.0" encoding="utf-8"?>
<!-- Generator: Adobe Illustrator 19.0.0, SVG Export Plug-In . SVG Version: 6.00 Build 0)  -->
<svg version="1.1" id="svg8902" xmlns:svg="http://www.w3.org/2000/svg"
	 xmlns="http://www.w3.org/2000/svg" xmlns:xlink="http://www.w3.org/1999/xlink" x="0px" y="0px" viewBox="326 -61 1024 198"
	 enable-background="new 326 -61 1024 198" xml:space="preserve">
<g id="layer1" transform="translate(-341.63015,-525.89406)">
	<path id="path8868" fill="#009A66" d="M1667.1,464.9c-12.6,0-23.4,9.7-23.4,23c0,13.3,10.8,23,23.4,23c12.5,0,23.4-9.7,23.4-23
		C1690.5,474.6,1679.6,464.9,1667.1,464.9z M757.4,466.3c-30.5,0-57.5,13.8-75.6,35.4l-0.5,0.5c-0.4,0.3-0.6,1,0,1
		c0.6,0,74.3,0,74.6,0c0.4,0,1.2,0,0.5,0.5c-1.1,0.5-23.7,11.7-43,32c-21.3,22.5-29.3,34.6-44,69.8c-0.3,1.2-1,1.7,0,3.8
		c1.1,2,3.2,5.8,3.3,6.2c0.3,0.5,1.2,1.7,1.9,0.5c0.6-1.3,8.7-22.8,24.4-45c15.7-22.1,32.9-34,34.9-35.4c1.9-1.3,2.2-1.4,3.3-1.4
		c1.1,0,68.2,0,69.4,0c0.2,0,0.3,0.5,0.5,0.5c-1.5,0.4-34.8,9-70.3,41.1c-27.4,24.8-41.2,53.7-43.5,59.3c-0.8,1.6-1.5,2.8-0.5,3.8
		c1.1,1,3.3,2.5,3.8,2.9c0.6,0.4,1,1.8,1.9,0.5c0.9-1.4,13-24.9,36.4-47.8c14.8-14.5,31.4-26.2,39.2-29.2c1-0.5,2-1,3.8-1
		s59.1,0,60.3,0c1.2,0,1.2,0.6,0.5,1c-0.7,0.4-48.7,10.9-81.8,38.7c-24,19.6-35.4,35.2-40.7,44.5c-1.2,2.4-2.6,4.5-1,5.3
		c1.6,0.8,9.4,3.6,10,3.8c9.9,3.4,21,5.3,32,5.3c54.4,0,98.5-43.9,98.5-98.1C855.9,510.5,811.8,466.3,757.4,466.3z M1667.1,468.7
		c10.4,0,18.7,8.2,18.7,19.1c0,11-8.2,19.1-18.7,19.1s-18.7-8.1-18.7-19.1C1648.4,476.9,1656.7,468.7,1667.1,468.7z M1176.8,473
		l-4.8,0.5c-7.3,0.7-34,1-63.1,1l-36.8-0.5l-20.1-0.5l-0.5,3.3c-1.4,20.7-3.4,39.3-7.7,68.9l-5.3,34l-1.9,15.3
		c-2.8,20.3-5.1,36.3-9.1,54l-1,4.3h4.3c4.7-0.5,62.7-1.4,62.7-1.4c28.4,0,47.3,1.1,56.4,1.4h3.3v-3.8c0-2.3,2.7-21.9,3.8-25.4
		l1.4-4.8l-5.3,1c-20.5,2-50.4,2.7-71.3,2.9c0.7-7.6,1.4-13.6,2.9-23c0,0,3.8-25.3,4.3-29.2c20.3,0,40.1,0.5,60.3,1.9l3.8,0.5v-3.8
		c-0.2-5.2,1.1-15,2.9-20.1l1.4-4.8h-4.8c-20.9,1-38.7,2-59.8,2.4c2.4-15.7,4.7-31.9,8.1-47.8c12,0.2,47.7,1.7,67.4,2.9h3.8v-3.3
		c0-3.4,2-18,2.9-20.6L1176.8,473z M1271.5,473l-4.3,0.5c-3.7,0.3-23,0.5-23,0.5c0,0-18.8-0.2-22.5-0.5h-3.3l-0.5,3.3
		c-1.5,21.3-3.4,39.8-7.7,68.9l-5.3,34c-4.1,29.2-7.3,48.1-12,69.4l-1,4.3l4.3-0.5c6-0.6,39.6-0.6,45.4,0l3.3,0.5l0.5-3.3
		c1.5-21.4,3.4-40.2,7.7-69.4l5.3-34c4.2-29.1,7.3-47.6,12-68.9L1271.5,473z M904.7,473.5v3.3c-1.4,21.2-3.9,39.8-8.1,68.9l-4.8,34
		c-4.2,29-7.7,48-12.4,69.4l-1,4.3h4.8c6-0.6,15.1-1.4,60.3-1.4c19.4,0,36.3,0.6,47.4,1l12.9,0.5l-0.5-3.8c0-2.6,2.9-22.3,3.8-25.4
		l1.4-4.8l-4.8,1c-21.8,2.2-49.6,2.7-68.4,2.9c0.9-6.4,5.7-42.1,5.7-42.1l4.8-34.4c4.2-29.1,7.8-47.6,12.4-68.9l1-4.3h-4.8
		c-3.1,0.2-12.8,0.5-23,0.5c-10,0-20.4-0.2-23.4-0.5H904.7z M1291.2,473.5v3.8c0.2,3.3-1.6,17.7-2.9,21l-1.9,5.3l5.3-0.5
		c15.3-1.6,37.2-3,49.3-3.3c-0.3,4.1-1.4,10.4-2.4,17.2l-9.1,62.7c-4.4,29.2-7.7,48.1-12.4,69.4l-1,4.3l4.8-0.5
		c6-0.6,39.5-0.6,45.4,0l3.3,0.5V650c1.4-21.5,3.9-40.5,8.1-69.4l9.1-62.7c1.1-7.4,2-14,2.9-18.2c12.2,0.2,34.2,1.8,47.4,3.3
		l4.3,0.5l-0.5-4.3c-0.2-3.3,1.7-17.8,2.9-21l1.9-4.8h-5.3h-3.8c-21.4,0.7-35.5,1.4-68.4,1.4c-32,0-45.8-0.8-67.4-1.4H1291.2z
		 M1464.3,473.5v3.8c-0.1,2.7-0.1,5.2-1,10.5c-0.9,5.8-1.5,7.6-1.9,10l-1.4,5.3h4.8c25.8-2,55.7-2.4,82.7-2.4
		c-11.2,14.7-23.6,30.1-36.8,46.4h-2.4c-0.2,0-20.9-0.8-37.3-2.4h-4.3v3.8c-0.2,2.7,0,4.8-1,10c-1,5.9-1.4,8.2-1.9,10.5l-1.4,4.8
		l5.3-0.5c6.4-0.5,16.6-1.1,23.4-1.4c-21.8,26.9-43,51.6-59.8,70.8l-0.5,1l-1.4,9.1h9.1c14.2-0.4,43.4-1,82.3-1l52.6,0.5l20.6,0.5
		V649c0-1.8,0.1-5.3,1-11c0.6-4,1.4-7.5,1.9-9.6l1.9-5.7l-4.8,0.5c-19.1,1.5-37.3,2.2-89.9,2.4c6.3-8.1,39.7-50.3,42.6-54h7.2
		c0,0,22,0.8,32.5,1.9l3.8,0.5v-4.3c0-1.8,0-5.2,1-11c0.6-3.9,1.2-6.8,1.9-9.1l1.9-4.8l-21,1.4h-7.2c17.5-21.6,34.9-42.1,51.7-61.7
		l0.5-1l1.4-10C1567.5,475.6,1516.9,474.7,1464.3,473.5z M1658,474.5v26.8h4.3v-11.5h4.8l6.7,11.5h4.8l-7.7-12
		c3.9-0.6,6.7-2.4,6.7-7.2c0-5.2-2.9-7.7-9.1-7.7H1658z M1662.3,477.8h5.3c2.8,0,5.7,0.5,5.7,3.8c0,4-2.8,4.3-6.2,4.3h-4.8V477.8z"
		/>
</g>
</svg>
