<?xml version="1.0" encoding="utf-8"?>
<!-- Generator: Adobe Illustrator 19.0.0, SVG Export Plug-In . SVG Version: 6.00 Build 0)  -->
<svg version="1.1" id="Layer_1" xmlns="http://www.w3.org/2000/svg" xmlns:xlink="http://www.w3.org/1999/xlink" x="0px" y="0px"
	 viewBox="0 0 460 240" enable-background="new 0 0 460 240" xml:space="preserve">
<g id="XMLID_16_">
	<path id="XMLID_33_" fill="#EC1C24" d="M441.9,43.1c4.5,0,8.1-3.6,8.1-8.1c0-4.5-3.6-8.1-8.1-8.1c-4.5,0-8.1,3.6-8.1,8.1
		C433.8,39.5,437.4,43.1,441.9,43.1L441.9,43.1z M441.9,41.2c-3.5,0-6.2-2.6-6.2-6.2c0-3.6,2.6-6.2,6.2-6.2c3.5,0,6.2,2.6,6.2,6.2
		C448.1,38.6,445.4,41.2,441.9,41.2L441.9,41.2z M443.8,35.6c1.5-0.1,2.3-0.7,2.3-2.3c0-2.2-1.3-2.6-3.3-2.6h-4.1v8.4h1.9v-3.5h1.3
		l1.9,3.5h2L443.8,35.6L443.8,35.6z M440.6,34.3v-2.1h1.8c0.8,0,1.9,0,1.9,0.9c0,1-0.5,1.2-1.5,1.2H440.6L440.6,34.3z"/>
	<g id="XMLID_17_">
		<path id="XMLID_10_" fill="#EC1C24" d="M157,207C75.9,177.5,30.4,93.4,47,11.3H12.1C-1,98.6,48.6,185.9,134.7,217.2
			c89.9,32.7,188.5-6.9,232.1-89.1C326.7,201.4,237.9,236.5,157,207z"/>
		<g id="XMLID_18_">
			<path id="XMLID_29_" fill="#EC1C24" d="M411.9,27.6v19.1h-8.7v0c-16.9,0-30.6,13.7-30.6,30.6c0,16.9,13.7,30.6,30.6,30.6
				c9.2,0,17.5-4.1,23.1-10.5c0,0,0,0,0,0l0-69.9H411.9z M411.8,90.6c-2.6,1.6-5.6,2.5-8.7,2.5c-9,0-16.2-7.3-16.2-16.2
				c0-8.9,7.3-16.2,16.2-16.2c0,0,4.6,0,8.7,0C411.8,72.9,411.8,84,411.8,90.6z"/>
			<path id="XMLID_26_" fill="#EC1C24" d="M274.2,46.6c-9.2,0-17.5,4.1-23.1,10.5c0,0,0,0,0,0l0,69.9h14.4v-19.1h8.7v0
				c16.9,0,30.6-13.7,30.6-30.6C304.8,60.3,291.1,46.6,274.2,46.6z M274.2,93.5c0,0-4.6,0-8.7,0c0-12.2,0-23.3,0-29.9
				c2.6-1.6,5.6-2.6,8.7-2.6c9,0,16.2,7.3,16.2,16.2C290.4,86.2,283.1,93.5,274.2,93.5z"/>
			<path id="XMLID_23_" fill="#EC1C24" d="M243.3,57c-5.6-6.4-13.8-10.4-23-10.4c-16.9,0-30.6,13.7-30.6,30.6
				c0,16.9,13.7,30.6,30.6,30.6c0,0,0.1,0,0.1,0l8.7-8.7l0,8.7h0h14.3L243.3,57L243.3,57L243.3,57z M229.1,91
				c-2.5,1.6-5.5,2.5-8.8,2.5c-9,0-16.4-7.3-16.4-16.4c0-9,7.3-16.4,16.4-16.4c3.2,0,6.2,0.9,8.8,2.6V91z"/>
			<path id="XMLID_3_" fill="#EC1C24" d="M329.2,70.1l14.2,14.2h21.9c1.4-3.2,2.7-7.8,1.9-14.2c-1.7-13.2-13-23.4-26.7-23.4
				c-16.8,0-30.5,13.7-30.5,30.5c0,16.8,13.8,30.6,30.6,30.6c0,0,0,0,0,0l0,0c7.3,0,14.1-2.6,19.4-6.9l-10.2-10.2
				c-2.6,1.8-5.8,2.9-9.2,2.9h-0.1c-9,0-16.4-7.3-16.4-16.4c0-9,7.3-16.4,16.4-16.4c5.7,0,10.6,4,12.1,9.3
				C352.7,70.1,330.6,70.1,329.2,70.1z"/>
			<g id="XMLID_19_">
				<path id="XMLID_2_" fill="#EC1C24" d="M98.6,47.3c0.6-1.8,2.2-3,4.1-3c1.9,0,3.5,1.2,4.1,3.1c0,0,14.6,54.6,16.2,60.6h17.1
					l-17.6-65.5c-0.7-2.3-1.9-4.5-3.4-6.5c-4-5.1-10-8.1-16.4-8.1c-6.5,0-12.5,3-16.4,8.1c-1.5,2-2.6,4.1-3.4,6.5
					c0,0-15.9,59.4-17.6,65.5h17.1L98.6,47.3z"/>
				<path id="XMLID_1_" fill="#EC1C24" d="M173.9,42.3c-0.7-2.4-1.9-4.5-3.4-6.5c-4-5.1-10-8.1-16.5-8.1c-6.5,0-12.5,3-16.5,8.1
					c-1.5,2-2.6,4.1-3.4,6.5l-2.1,7.9l8.5,31.9l9.3-34.8c0.6-1.8,2.2-3,4.1-3c1.9,0,3.5,1.2,4.1,3.1c0,0,14.6,54.6,16.2,60.6h17.1
					L173.9,42.3z"/>
			</g>
		</g>
	</g>
</g>
</svg>
