<?xml version="1.0" encoding="utf-8"?>
<!-- Generator: Adobe Illustrator 19.0.0, SVG Export Plug-In . SVG Version: 6.00 Build 0)  -->
<svg version="1.1" id="Layer_1" xmlns="http://www.w3.org/2000/svg" xmlns:xlink="http://www.w3.org/1999/xlink" x="0px" y="0px"
	 viewBox="0 0 400 100" enable-background="new 0 0 400 100" xml:space="preserve">
<g>
	<path fill-rule="evenodd" clip-rule="evenodd" fill="#313466" d="M379,74.5c-6.3,7.7-15.9,12.6-26.6,12.6
		c-10.7,0-20.3-4.9-26.6-12.6H379L379,74.5z M312.3,52.6c0-22.1,17.9-40.1,40.1-40.1c22.1,0,40.1,17.9,40.1,40.1
		c0,22.1-17.9,40.1-40.1,40.1C330.3,92.7,312.3,74.8,312.3,52.6L312.3,52.6z M331.5,62.4c0-0.4,0.3-0.6,0.6-0.6
		c0.4,0,0.7,0.3,0.7,0.6c0,0.4-0.3,0.6-0.7,0.6C331.8,63,331.5,62.7,331.5,62.4L331.5,62.4z M361,67.9l-0.2,0
		c-2.1-0.2-3.7-1.2-4.6-2.5c-1-1.3-1.5-3.2-1.8-4.8c-0.3-1.6-1.2-1.9-1.9-1.9c0.2,1.8,0.8,5.3,2.5,7.6c1.3,1.8,3.5,2.9,6.3,3.2
		c5,0.4,10.2,0.7,12.3,3.5h-25.5c0,0-6.2-4.6-6.2-12.9c0-11.8,12.1-21.7,12.1-29.1l0-0.2c-0.1-3.9-3.7-5.9-6.6-5.9
		c-3.6,0-7,2.8-7.5,10.6l-1.1,17.4c-0.1,1.5,0.2,2.3,1.2,3l-0.1,0.4c0,0-1-0.3-1.4-0.4c-0.7-0.2-1-0.7-1-1.7l-1.5-31.6
		c0,0,4.7-4.4,12.7-4.4c8.4,0,14.5,6.2,14.5,13.8c0,5.7-2.2,8.6-3.5,12.3c-0.7,1.8-0.5,3.2-0.4,3.7c-0.4,0.4-2,1.6-4,2.4
		c5.8-0.5,9.4-5.1,12.6-9.5c2.3-3.1,3.8-3.6,5.1-3.6c2.7,0,4.4,1.3,5.9,5.5c1.6,4.6,2,11.8,2.2,16.2c0.3,6,1.4,8.9,3.8,9.7
		c-7.3,1-9.2-4-10.2-7.8c-0.7-2.5-1.2-6.3-1.6-9.2c-0.2-1.4-1.1-1.9-1.8-1.8c0.3,3,0.9,8.1,1.8,11.4c0.6,2.2,1.6,5.3,4.1,7.2
		c-7.5,0.9-9.8-6.8-10.6-13.1c-0.2-1.5-1.1-1.8-1.8-1.7c0.5,5.1,1.8,11.4,5.5,14.6c-6.5,0.6-8.8-4.1-9.9-10
		c-0.3-1.6-1.3-1.7-1.9-1.6c0.7,4.5,1.9,8.6,4.5,11.1C361.9,67.9,361.5,67.9,361,67.9L361,67.9L361,67.9z M337.1,29
		c0,0.6,0.5,1.1,1.1,1.1c0.6,0,1.1-0.5,1.1-1.1c0-0.6-0.5-1.1-1.1-1.1C337.6,27.9,337.1,28.4,337.1,29L337.1,29z M327.4,73
		c1.1-3.5,2.7-4.6,5.4-5.6c-0.8-0.5-1.5-1-2.1-1.6c-0.8-0.8-1.1-1.8-0.5-3.1c0.7-1.7,1.2-1.9,1.9-2c0.3,0,0.5-0.1,0.6-0.2
		c0.2-0.1,1.9-2,3.4-2.8c0.3-0.1,0.5,0,0.4,0.3c-0.6,1.8-2.3,5-2.8,5.4c-0.3,0.3-0.2,0.6,0.3,0.6c0.5,0,1.9,0.4,3,1.4
		c1.5,1.3,2.2,2.5,2.2,3.7c0,1.8-0.5,2.9-1,3.7h-6.8c0.1-0.5,0.6-2,1.4-3.2c-1.6,0.8-2.7,3.2-2.7,3.2H327.4L327.4,73z M350.8,27.7
		c-1.1,0.2-2.4,1.3-3,4.3c-1.7,8.4-5.7,16.7-7.9,21.5c0-0.1,0-0.3,0-0.5l1.1-17.4c0.5-7.4,3.6-9.3,6.1-9.3
		C348.4,26.3,349.8,26.8,350.8,27.7L350.8,27.7z"/>
	<path fill-rule="evenodd" clip-rule="evenodd" fill="#313466" d="M78,65.5c0,6.8,2.8,10.1,8,10.1c5.1,0,8.6-1.9,10-2.7l1.7,2.6
		c-1.8,2-8.4,8.3-17.5,8.3c-10.6,0-20.5-7.5-18.1-22.3c2.3-14.1,13.1-21.6,26-21.6c9,0,15.1,6.1,13.9,13.3
		C100.6,62.6,87.7,65.6,78,65.5L78,65.5z M78.1,62.7c6.4-0.8,9.8-5.8,11.1-10.9c1.1-4.4,1.1-9.3-2.3-9.3
		C82.4,42.4,78.7,55.1,78.1,62.7L78.1,62.7z"/>
	<path fill-rule="evenodd" clip-rule="evenodd" fill="#313466" d="M232,49.6c0.6-3-0.4-5.3-2.9-5.2c-3.5,0.1-6.4,4.9-8.9,18.9
		c-1.7,9.4-1.4,14.3,1.9,14.6c2.4,0.2,5-1.6,6.2-8.3L232,49.6L232,49.6z M227.4,78.2c-2.2,2.6-5.3,5.4-12.4,5.4
		c-6,0-14.2-5.5-11.3-20.7c2.5-13.1,11.3-22.1,22-22.6c3.9-0.2,6.9,1.4,8.4,3.9l0.5-2.5l15-1.2l-6.5,34.9c-0.5,2.5,1,3.3,2.6,3.3
		c-1.3,1.4-4.8,4.8-10.3,4.8C230.3,83.7,228,81.2,227.4,78.2L227.4,78.2z"/>
	<path fill-rule="evenodd" clip-rule="evenodd" fill="#313466" d="M149.5,78.9c-1.3,1.4-5.3,4.8-10.8,4.8c-8.3,0-9-5.6-8.1-10.2
		l5.8-31.5l16.9-1.3l-6.5,34.9C146.5,78,147.9,78.9,149.5,78.9L149.5,78.9z"/>
	<path fill-rule="evenodd" clip-rule="evenodd" fill="#313466" d="M155.5,28.9c0,4.7-3.8,8.5-8.5,8.5c-4.7,0-8.5-3.8-8.5-8.5
		c0-4.7,3.8-8.5,8.5-8.5C151.7,20.4,155.5,24.2,155.5,28.9L155.5,28.9z"/>
	<path fill-rule="evenodd" clip-rule="evenodd" fill="#313466" d="M171.2,81.7l-15.9,1.2L166,25.1l15.9-1.2l-6.3,34.2l13.6-16.2
		l16.5-1.3l-17.4,18.6l12.1,22.7c0.7,1.4,2,1.8,3.4,1.5c-1,2-4.3,4.8-9.5,4.8c-6.7,0-9.5-3.6-11-6.9l-8.5-18.8L171.2,81.7
		L171.2,81.7z"/>
	<path fill-rule="evenodd" clip-rule="evenodd" fill="#313466" d="M122.9,78.9c-1.3,1.4-5.3,4.8-10.8,4.8c-8.3,0-9-5.6-8.2-10.2
		l9-48.4l16.9-1.3l-9.6,51.9C119.8,78,121.2,78.9,122.9,78.9L122.9,78.9z"/>
	<path fill-rule="evenodd" clip-rule="evenodd" fill="#313466" d="M281.4,52.4c0.5-2.5,0.6-6-2.7-6c-2.7,0-5.4,3.1-5.9,6l-5.4,29.3
		L251,82.9l7.6-41l16.3-1.3l-1,5.4c4-5.6,9.9-6,13.2-6c8.3,0,11.6,5.2,10.2,13l-4.2,22.5c-0.5,2.4,1,3.3,2.6,3.3
		c-1.3,1.3-5,4.8-10.3,4.8c-8.3,0-8.8-5.6-7.9-10.2L281.4,52.4L281.4,52.4z"/>
	<path fill-rule="evenodd" clip-rule="evenodd" fill="#313466" d="M51.7,42.1c7.8-0.7,15.9-5.2,16.3-14.8
		c0.4-9.1-8.4-13.1-17.5-13.1c-15.7,0-28,11.4-28,22.2c0,7.8,3.1,10.9,5.7,12.7c-1,0.6-2.7,1.5-5.4,1.5c-7.2,0-12.2-4.7-12.4-12
		c-0.3-11.1,13.1-25,38.9-28C68.2,8.4,84.1,12.7,84,25.2c-0.1,11.8-19.5,20-33,20.6l-3.8,20.3c-2,10.6-9.8,17.7-24,17.9
		c-4.8,0.1-8.2-0.6-10.6-1.8C9.5,80.7,8,78.2,8,75.4c0-3.7,3-6.9,6.9-6.9c3.8,0,6.9,3.1,6.9,6.9c0,2-0.8,3.7-2.1,5
		c4.2-0.8,7.5-4.6,8.5-10l7.4-40.1c1.4-7.6,7.3-10.1,14.5-11l6.1-0.7L51.7,42.1L51.7,42.1z"/>
</g>
</svg>
