<?xml version="1.0" encoding="utf-8"?>
<!-- Generator: Adobe Illustrator 19.0.0, SVG Export Plug-In . SVG Version: 6.00 Build 0)  -->
<svg version="1.1" id="Layer_1" xmlns="http://www.w3.org/2000/svg" xmlns:xlink="http://www.w3.org/1999/xlink" x="0px" y="0px"
	 viewBox="0 0 186 50" enable-background="new 0 0 186 50" xml:space="preserve">
<g>
	<path fill-rule="evenodd" clip-rule="evenodd" fill="#0059A9" d="M38.6,1.5c1.7-0.4,3.4-0.6,5.1-0.4c1.5,0.1,3,0.6,4.3,1.5
		c2.2,1.5,3.5,4.3,3.3,7c-0.1,1.5-0.5,2.9-1,4.3c-0.9,2.5-2.4,4.9-4.2,6.8c0.4-1.8,0.7-3.6,0.5-5.4c-0.2-1.2-0.7-2.4-1.6-3.3
		c-1.2-1.1-2.8-1.5-4.4-1.6c-3.5-0.3-7,0.6-10.2,1.9c-4.1,1.7-7.8,4-11.3,6.7c-3.7,2.8-7.1,6-10.3,9.3c-1.5,1.5-2.9,3.1-4.2,4.8
		c-0.4,0.5-0.8,1-1.2,1.4c-0.1,0.1-0.2,0.1-0.3,0.2c0-0.2,0-0.3,0.1-0.5c0.3-0.7,0.7-1.3,1-2c1.1-2,2.4-4,3.8-5.8
		c3.1-4.2,6.5-8.1,10.2-11.8c3.4-3.3,7-6.4,11.1-8.9C32,3.8,35.2,2.3,38.6,1.5L38.6,1.5z"/>
	<path fill-rule="evenodd" clip-rule="evenodd" fill="#0059A9" d="M26.5,21.3c1.7-0.4,3.4-0.7,5.1-0.5c1.2,0.1,2.3,0.5,3.2,1.3
		c1,1,1.5,2.4,1.5,3.8c0,1.4-0.4,2.7-1,4c-1.1,2.5-2.8,4.8-4.8,6.7c-3.9,4-8.7,7-13.7,9.3c-0.3,0.1-0.7,0.3-1,0.4
		c0-6.6,0-13.1,0-19.7c1.6-1.1,3.3-2.1,5.1-3.1C22.5,22.7,24.4,21.8,26.5,21.3L26.5,21.3z"/>
	<path fill-rule="evenodd" clip-rule="evenodd" fill="#0059A9" d="M140,21c3.1-0.3,6.3,0.1,9.1,1.5c2.4,1.2,4.5,3.1,5.9,5.4
		c1.4,2.5,2,5.4,1.8,8.3c-0.2,2.6-1.1,5.2-2.7,7.3c-1.7,2.2-4.1,3.8-6.8,4.7c-2.9,0.9-6.1,1.1-9.1,0.5c-2.8-0.5-5.5-1.8-7.6-3.9
		c-2-1.9-3.3-4.5-3.7-7.2c-0.5-3-0.2-6.2,1.2-8.9c1.1-2.2,2.7-4,4.8-5.3C135,22,137.5,21.2,140,21L140,21z M140.8,28.8
		c-1,0.1-1.9,0.4-2.7,0.9c-0.9,0.6-1.6,1.4-2,2.4c-0.6,1.3-0.7,2.8-0.4,4.2c0.2,1.3,0.8,2.6,1.9,3.5c1,0.9,2.3,1.3,3.7,1.3
		c1.5,0.1,3-0.2,4.3-1.1c1-0.8,1.8-1.9,2.1-3.2c0.3-1.4,0.3-3-0.2-4.4c-0.4-1.3-1.3-2.4-2.6-3.1C143.6,28.8,142.2,28.6,140.8,28.8
		L140.8,28.8z"/>
	<path fill-rule="evenodd" clip-rule="evenodd" fill="#0059A9" d="M64.2,21.4c4.7,0,9.4,0,14.1,0c1.6,0,3.1,0.2,4.6,0.6
		c1.3,0.4,2.5,1,3.6,1.8c1,0.8,1.9,2,2.4,3.2c0.6,1.5,0.8,3.1,0.7,4.7c-0.1,1.6-0.6,3.2-1.5,4.6c-1.3,2-3.5,3.3-5.8,3.8
		c-1.5,0.4-3.1,0.3-4.7,0.3c-1.5,0-3,0-4.5,0c0,2.7,0,5.4,0,8.1c-3,0-5.9,0-8.9,0C64.2,39.5,64.2,30.4,64.2,21.4L64.2,21.4z
		 M73.1,28.1c0,1.9,0,3.8,0,5.7c1,0,2,0,3,0c0.9,0,1.9,0.1,2.8-0.2c0.6-0.2,1.1-0.5,1.4-1c0.4-0.7,0.4-1.5,0.4-2.2
		c-0.1-0.7-0.4-1.3-1-1.7c-0.9-0.5-1.9-0.5-2.9-0.6C75.6,28.1,74.4,28.1,73.1,28.1L73.1,28.1z"/>
	<path fill-rule="evenodd" clip-rule="evenodd" fill="#0059A9" d="M93,21.4c1.9,0,3.8,0,5.7,0c1.2,0,2.4,0,3.6,0
		c0,8.3,0,16.6,0,24.9c0,0.7,0,1.5,0,2.2c-3.1,0-6.2,0-9.3,0C93,39.5,93,30.4,93,21.4L93,21.4z"/>
	<path fill-rule="evenodd" clip-rule="evenodd" fill="#0059A9" d="M107.9,21.4c3.1,0,6.2,0,9.3,0c0,6.7,0,13.4,0,20.1
		c2.9,0,5.8,0,8.8,0c0,2.4,0,4.7,0,7.1c-6,0-12,0-18,0C107.9,39.5,107.9,30.4,107.9,21.4L107.9,21.4z"/>
	<path fill-rule="evenodd" clip-rule="evenodd" fill="#0059A9" d="M157.8,21.4c8.4,0,16.8,0,25.2,0c0,2.4,0,4.8,0,7.2
		c-2.6,0-5.3,0-7.9,0c0,6.6,0,13.3,0,19.9c-3.1,0-6.2,0-9.3,0c0-6.6,0-13.2,0-19.9c-2.6,0-5.3,0-7.9,0
		C157.8,26.2,157.8,23.8,157.8,21.4L157.8,21.4z"/>
	<path fill-rule="evenodd" clip-rule="evenodd" fill="#0059A9" d="M31.2,39.1c3.3-2.4,6.4-5.2,9.2-8.2c0,5.9,0,11.7,0,17.6
		c-8.1,0-16.2,0-24.3,0c-0.2,0-0.3,0-0.5,0c0-0.4,0-0.7,0-1.1c2.9-1.2,5.7-2.4,8.5-3.9C26.6,42.2,28.9,40.7,31.2,39.1L31.2,39.1z"/>
</g>
</svg>
