<?xml version="1.0" encoding="UTF-8" standalone="no"?>
<!-- Created with Inkscape (http://www.inkscape.org/) -->
<svg
   xmlns:svg="http://www.w3.org/2000/svg"
   xmlns="http://www.w3.org/2000/svg"
   version="1.0"
   width="602.36218"
   height="198.31889"
   id="svg1878">
  <defs
     id="defs1880" />
  <g
     id="layer1">
    <g
       transform="matrix(3.543307e-5,0,0,3.543307e-5,-3.691406e-6,-3.542986e-3)"
       style="fill:red;fill-rule:evenodd"
       id="Layer_x0020_1">
  
  <g
   style="fill:red"
   id="_47279840">
   <path
   d="M 16500000,1851250 L 16500000,4688220 C 16478820,4801680 16444950,4868060 16365450,4951760 C 16288520,5032660 16226810,5069010 16118770,5097200 L 14066320,5097200 L 14066320,4563170 L 15350650,4563170 C 15460640,4563170 15586070,4490930 15586070,4407870 C 15586070,3740690 15586070,2389440 15586070,2389440 C 15586070,2389440 15216030,2389440 15087130,2389440 C 15015950,2389440 14952590,2445570 14958170,2608130 L 14956310,3421080 C 14956230,3465750 14987690,3485420 15019870,3516450 C 15109820,3603130 15337810,3555650 15337810,3555650 L 15337810,4133200 L 14498420,4133200 C 14293750,4133200 14065240,3962120 14066320,3796720 L 14066320,2210040 C 14078810,2116900 14104690,2061230 14167620,1991400 C 14252800,1896910 14337550,1858520 14464730,1856830 L 16500000,1851250 z M 11142020,4118130 L 11142020,1798770 L 13074300,1798770 C 13206110,1808160 13360150,1855950 13447110,1951150 C 13564900,2080120 13598490,2141800 13599740,2324040 L 13599740,4118130 L 12635990,4118130 L 12635990,2613700 C 12635990,2325010 12477150,2372600 12095570,2369940 L 12095570,4118130 L 11142020,4118130 z M 9699030,1032700 C 9699030,738510 9937540,500000 10231730,500000 C 10525820,500000 10764360,738510 10764360,1032700 C 10764360,1326790 10525820,1565300 10231730,1565300 C 9937540,1565300 9699030,1326790 9699030,1032700 L 9699030,1032700 z M 9760710,4118130 L 10680240,4118130 L 10680240,1808160 L 9760710,1808160 L 9760710,4118130 z M 8080260,4118130 L 9084790,4118130 L 9084790,2368880 L 9631490,2368880 L 9631490,1798770 L 8605700,1798770 C 8474000,1808160 8319850,1855950 8232890,1951150 C 8115180,2080120 8081510,2141800 8080260,2324040 L 8080260,4118130 z M 7607750,1116720 L 7607750,1829520 L 7993930,1829520 L 7993930,2372700 L 7607400,2372700 L 7607400,4118130 L 6628400,4118130 L 6628400,2372700 L 6009810,2372600 L 5807550,1840000 L 6570530,1823160 C 6721910,1806410 6817190,1800830 6940580,1660600 C 7092510,1487940 7147990,1364280 7181580,1117520 L 7607750,1116720 z M 500000,4118130 L 1504430,4118130 L 1504430,2368880 L 2051130,2368880 L 2051130,1798770 L 1025440,1798770 C 893740,1808160 739590,1855950 652640,1951150 C 534850,2080120 501260,2141800 500000,2324040 L 500000,4118130 z M 2914810,2882520 C 2914810,2235750 3439100,1711380 4085870,1711380 C 4732750,1711380 5257040,2235750 5257040,2882520 C 5257040,3529320 4732750,4053600 4085870,4053600 C 3439100,4053600 2914810,3529320 2914810,2882520 z "
   style="fill:red"
   id="_47360496" />

   <path
   d="M 2497780,2882520 C 2497780,2005400 3208830,1294350 4085870,1294350 C 4963020,1294350 5674060,2005400 5674060,2882520 C 5674060,3759590 4963020,4470630 4085870,4470630 C 3208830,4470630 2497780,3759590 2497780,2882520 z M 1972160,2882520 C 1972160,1715100 2918530,768730 4085870,768730 C 5253290,768730 6199660,1715100 6199660,2882520 C 6199660,4049860 5253290,4996250 4085870,4996250 C 2918530,4996250 1972160,4049860 1972160,2882520 L 1972160,2882520 z "
   style="fill:red"
   id="_47304680" />

  </g>

 </g>
  </g>
</svg>
