<?xml version="1.0" encoding="utf-8"?>
<!-- Generator: Adobe Illustrator 19.0.0, SVG Export Plug-In . SVG Version: 6.00 Build 0)  -->
<svg version="1.1" id="Ebene_1" xmlns="http://www.w3.org/2000/svg" xmlns:xlink="http://www.w3.org/1999/xlink" x="0px" y="0px"
	 viewBox="-169 21 60 60" enable-background="new -169 21 60 60" xml:space="preserve">
<g>
	<rect id="farbfläche" x="-169" y="21" fill="#004283" width="60" height="60"/>
	<path id="Bildmarke" fill="#FFFFFF" d="M-152.4,47.1h7.7l-1.3,5.5h8l5.7,8.5h-11.5l-2.6-3.8h-4.9l-0.4-4.9h-2L-152.4,47.1z
		 M-149.7,32.9l3.9,5.5c2.7-2.1,4.9-3.5,7.6-3.5c2.3,0,4.9,1,6.2,3.3c1.1,2,1.1,5,0,6.9c-2.1,3.9-4,7.5-4.1,7.5l3.7,5.4
		c0,0,6.1-9.1,7.1-13.8c0.9-4.2,0.3-7.6-1.9-10.7c-2.4-3.7-6.8-5.1-10.3-5.2C-142.5,28.1-147.8,31.2-149.7,32.9 M-153.5,45.7
		c0,0,10.4-7.6,12.9-9c0.9-0.5,4.7-1,6.8,1.7c1.9,2.3,0.7,5.8-0.1,7c-0.8,1.3-3.3,5.9-3.3,5.9h-6.7l1.3-5.6H-153.5z"/>
	<g id="R-Zeichen">
		<path fill="#FFFFFF" d="M-114.6,68.6l0.3,0.5h-0.2l-0.3-0.5h-0.2v0.5h-0.2V68h0.5c0.2,0,0.4,0.1,0.4,0.3
			C-114.3,68.5-114.4,68.6-114.6,68.6 M-115,68.4h0.2c0.1,0,0.4,0,0.4-0.1s-0.1-0.1-0.3-0.1h-0.3V68.4z"/>
		<path fill="#FFFFFF" d="M-114.7,69.5c-0.6,0-1-0.4-1-1s0.4-1,1-1c0.6,0,1,0.4,1,1S-114.2,69.5-114.7,69.5 M-114.7,69.4
			c0.5,0,0.9-0.4,0.9-0.8c0-0.5-0.4-0.8-0.9-0.8s-0.9,0.4-0.9,0.8C-115.6,69-115.2,69.4-114.7,69.4"/>
	</g>
	<g id="R-Zeichen_4_">
		<path fill="#FFFFFF" d="M-130,59.1l0.3,0.5h-0.2l-0.3-0.5h-0.2v0.5h-0.2v-1.1h0.6c0.2,0,0.4,0.1,0.4,0.3
			C-129.7,59-129.8,59.1-130,59.1 M-130.4,58.9h0.2c0.1,0,0.4,0,0.4-0.1s-0.1-0.1-0.3-0.1h-0.3C-130.4,58.7-130.4,58.9-130.4,58.9z"
			/>
		<path fill="#FFFFFF" d="M-130.1,60.1c-0.6,0-1-0.4-1-1s0.4-1,1-1c0.6,0,1,0.4,1,1S-129.6,60.1-130.1,60.1 M-130.1,59.9
			c0.5,0,0.9-0.4,0.9-0.8c0-0.5-0.4-0.8-0.9-0.8s-0.9,0.4-0.9,0.8S-130.6,59.9-130.1,59.9"/>
	</g>
	<g id="wortmarke">
		<path fill="#FFFFFF" d="M-158.3,70.4h-1.6c-0.3,0-0.5-0.2-0.5-0.5s0.3-0.5,0.6-0.5h2.5v-1.1h-2.8c-0.9,0-1.6,0.7-1.6,1.6
			s0.7,1.6,1.6,1.6h1.6c0.3,0,0.6,0.2,0.6,0.6c0,0.3-0.2,0.6-0.6,0.6h-3.2v1.1h3.4c0.9,0,1.6-0.7,1.6-1.6
			C-156.7,71.2-157.4,70.4-158.3,70.4z"/>
		<polygon fill="#FFFFFF" points="-152,68.3 -156.6,68.3 -156.6,69.5 -155.1,69.5 -155.1,73.7 -154,73.7 -154,69.5 -152,69.5 		"/>
		<path fill="#FFFFFF" d="M-150.4,68.6c-0.1,0.1-0.3,0.3-0.3,0.3l-2.6,4.8h1.3l0.6-1.1h2.7v1.1h1.2v-5.4h-2.2
			C-150,68.3-150.2,68.4-150.4,68.6z M-149.6,69.5c0.1-0.1,0.2-0.1,0.4-0.1h0.5v2.1h-2.1l0.9-1.7C-149.9,69.7-149.7,69.6-149.6,69.5
			z"/>
		<polygon fill="#FFFFFF" points="-146.5,73.7 -142.3,73.7 -142.3,72.7 -145.2,72.7 -145.2,71.5 -142.6,71.5 -142.6,70.5 
			-145.2,70.5 -145.2,69.4 -142.3,69.4 -142.3,68.3 -146.5,68.3 		"/>
		<path fill="#FFFFFF" d="M-138.1,68.3c-0.8,0-3.2,0-3.2,0v5.4h3.3c1.3,0,2.1-0.9,2.1-2.8C-135.9,69.6-136.7,68.3-138.1,68.3z
			 M-138.4,72.7h-1.6v-3.3h1.7c0.8,0,1.3,0.6,1.3,1.6C-137.1,72.1-137.6,72.7-138.4,72.7z"/>
		<polygon fill="#FFFFFF" points="-135.7,69.4 -134,69.4 -134,73.7 -132.8,73.7 -132.8,69.4 -131,69.4 -131,68.3 -135.7,68.3 		"/>
		<polygon fill="#FFFFFF" points="-129.3,68.3 -130.5,68.3 -130.5,73.7 -127,73.7 -127,72.7 -129.3,72.7 		"/>
		<path fill="#FFFFFF" d="M-117.2,71.7c-0.1-0.2-0.1-0.3-0.3-0.4c-0.1-0.1-0.3-0.2-0.5-0.2c0.7-0.1,1.3-0.6,1.3-1.4
			s-0.6-1.4-1.4-1.4h-3v5.4h1.2v-2.2h0.7c0.2,0,0.4,0.1,0.6,0.2c0.1,0.1,0.2,0.2,0.3,0.4l0.7,1.6h1.3L-117.2,71.7z M-118.5,70.5
			h-1.4v-1.1h1.4c0.3,0,0.5,0.2,0.5,0.5S-118.2,70.5-118.5,70.5z"/>
		<polygon fill="#FFFFFF" points="-122,68.3 -126.2,68.3 -126.2,73.7 -121.9,73.7 -121.9,72.7 -124.9,72.7 -124.9,71.5 -122.3,71.5 
			-122.3,70.5 -124.9,70.5 -124.9,69.4 -121.9,69.4 		"/>
	</g>
</g>
</svg>
